<?xml version="1.0" encoding="utf-8"?>
<svg xmlns="http://www.w3.org/2000/svg" xmlns:xlink="http://www.w3.org/1999/xlink" width="1200" height="600" viewBox="0 0 4800 2400">
<defs>
  <clipPath id="clip540">
    <rect x="0" y="0" width="4800" height="2400"/>
  </clipPath>
</defs>
<path clip-path="url(#clip540)" d="M0 2400 L4800 2400 L4800 0 L0 0  Z" fill="#ffffff" fill-rule="evenodd" fill-opacity="1"/>
<defs>
  <clipPath id="clip541">
    <rect x="960" y="0" width="3361" height="2400"/>
  </clipPath>
</defs>
<path clip-path="url(#clip540)" d="M201.54 538.269 L608.992 538.269 L608.992 31.4961 L201.54 31.4961  Z" fill="#ffffff" fill-rule="evenodd" fill-opacity="1"/>
<defs>
  <clipPath id="clip542">
    <rect x="201" y="31" width="408" height="508"/>
  </clipPath>
</defs>
<polyline clip-path="url(#clip542)" style="stroke:#009af9; stroke-linecap:round; stroke-linejoin:round; stroke-width:4; stroke-opacity:1; fill:none" points="213.071,292.056 226.326,310.787 239.581,345.257 252.836,384.258 266.091,413.358 279.345,420.181 292.6,401.235 305.855,356.039 319.11,284.154 332.365,208.785 345.619,152.81 358.874,134.652 372.129,158.287 385.384,231.024 398.638,334.924 411.893,430.517 425.148,501.058 438.403,523.926 451.658,485.915 464.912,404.906 478.167,296.497 491.422,189.46 504.677,99.3204 517.931,53.1142 531.186,45.8387 544.441,79.0715 557.696,142.495 570.951,209.512 584.205,261.723 597.46,292.717 "/>
<polyline clip-path="url(#clip542)" style="stroke:#000000; stroke-linecap:round; stroke-linejoin:round; stroke-width:4; stroke-opacity:1; fill:none" points="-205.912,283.666 1016.44,283.666 "/>
<path clip-path="url(#clip540)" d="M190.054 140.271 Q192.991 140.899 194.632 142.884 Q196.292 144.869 196.292 147.786 Q196.292 152.262 193.214 154.713 Q190.135 157.164 184.464 157.164 Q182.56 157.164 180.534 156.779 Q178.529 156.414 176.382 155.665 L176.382 151.715 Q178.084 152.708 180.109 153.214 Q182.135 153.72 184.342 153.72 Q188.191 153.72 190.196 152.201 Q192.221 150.682 192.221 147.786 Q192.221 145.112 190.338 143.613 Q188.474 142.094 185.132 142.094 L181.608 142.094 L181.608 138.732 L185.294 138.732 Q188.312 138.732 189.912 137.537 Q191.512 136.322 191.512 134.053 Q191.512 131.724 189.851 130.488 Q188.211 129.233 185.132 129.233 Q183.451 129.233 181.527 129.597 Q179.603 129.962 177.294 130.731 L177.294 127.086 Q179.623 126.437 181.648 126.113 Q183.694 125.789 185.497 125.789 Q190.155 125.789 192.869 127.916 Q195.584 130.023 195.584 133.628 Q195.584 136.139 194.145 137.881 Q192.707 139.603 190.054 140.271 Z" fill="#ff0000" fill-rule="nonzero" fill-opacity="1" /><path clip-path="url(#clip540)" d="M212.8 129.03 Q209.64 129.03 208.04 132.149 Q206.46 135.248 206.46 141.487 Q206.46 147.705 208.04 150.824 Q209.64 153.923 212.8 153.923 Q215.98 153.923 217.56 150.824 Q219.16 147.705 219.16 141.487 Q219.16 135.248 217.56 132.149 Q215.98 129.03 212.8 129.03 M212.8 125.789 Q217.884 125.789 220.557 129.82 Q223.251 133.83 223.251 141.487 Q223.251 149.123 220.557 153.153 Q217.884 157.164 212.8 157.164 Q207.716 157.164 205.022 153.153 Q202.349 149.123 202.349 141.487 Q202.349 133.83 205.022 129.82 Q207.716 125.789 212.8 125.789 Z" fill="#ff0000" fill-rule="nonzero" fill-opacity="1" /><path clip-path="url(#clip540)" d="M795.918 538.269 L1203.37 538.269 L1203.37 31.4961 L795.918 31.4961  Z" fill="#ffffff" fill-rule="evenodd" fill-opacity="1"/>
<defs>
  <clipPath id="clip543">
    <rect x="795" y="31" width="408" height="508"/>
  </clipPath>
</defs>
<polyline clip-path="url(#clip543)" style="stroke:#009af9; stroke-linecap:round; stroke-linejoin:round; stroke-width:4; stroke-opacity:1; fill:none" points="807.45,256.301 820.704,279.99 833.959,213.799 847.214,353.935 860.469,157.903 873.723,345.856 886.978,207.603 900.233,327.846 913.488,177.175 926.743,311.632 939.997,295.286 953.252,174.21 966.507,342.308 979.762,203.503 993.016,303.575 1006.27,293.576 1019.53,129.217 1032.78,412.583 1046.04,242.392 1059.29,145.507 1072.55,385.112 1085.8,204.573 1099.05,337.952 1112.31,74.6336 1125.56,523.926 1138.82,45.8387 1152.07,379.066 1165.33,206.803 1178.58,289.869 1191.84,248.646 "/>
<polyline clip-path="url(#clip543)" style="stroke:#000000; stroke-linecap:round; stroke-linejoin:round; stroke-width:4; stroke-opacity:1; fill:none" points="388.466,262.57 1610.82,262.57 "/>
<path clip-path="url(#clip540)" d="M784.432 140.271 Q787.369 140.899 789.01 142.884 Q790.67 144.869 790.67 147.786 Q790.67 152.262 787.592 154.713 Q784.513 157.164 778.842 157.164 Q776.938 157.164 774.912 156.779 Q772.907 156.414 770.76 155.665 L770.76 151.715 Q772.462 152.708 774.487 153.214 Q776.513 153.72 778.72 153.72 Q782.569 153.72 784.574 152.201 Q786.599 150.682 786.599 147.786 Q786.599 145.112 784.716 143.613 Q782.852 142.094 779.51 142.094 L775.986 142.094 L775.986 138.732 L779.672 138.732 Q782.69 138.732 784.29 137.537 Q785.89 136.322 785.89 134.053 Q785.89 131.724 784.23 130.488 Q782.589 129.233 779.51 129.233 Q777.829 129.233 775.905 129.597 Q773.981 129.962 771.672 130.731 L771.672 127.086 Q774.001 126.437 776.026 126.113 Q778.072 125.789 779.875 125.789 Q784.533 125.789 787.247 127.916 Q789.962 130.023 789.962 133.628 Q789.962 136.139 788.523 137.881 Q787.085 139.603 784.432 140.271 Z" fill="#ff0000" fill-rule="nonzero" fill-opacity="1" /><path clip-path="url(#clip540)" d="M807.178 129.03 Q804.018 129.03 802.418 132.149 Q800.838 135.248 800.838 141.487 Q800.838 147.705 802.418 150.824 Q804.018 153.923 807.178 153.923 Q810.358 153.923 811.938 150.824 Q813.538 147.705 813.538 141.487 Q813.538 135.248 811.938 132.149 Q810.358 129.03 807.178 129.03 M807.178 125.789 Q812.262 125.789 814.935 129.82 Q817.629 133.83 817.629 141.487 Q817.629 149.123 814.935 153.153 Q812.262 157.164 807.178 157.164 Q802.094 157.164 799.4 153.153 Q796.727 149.123 796.727 141.487 Q796.727 133.83 799.4 129.82 Q802.094 125.789 807.178 125.789 Z" fill="#ff0000" fill-rule="nonzero" fill-opacity="1" /><path clip-path="url(#clip540)" d="M1389.16 538.269 L1796.61 538.269 L1796.61 31.4961 L1389.16 31.4961  Z" fill="#ffffff" fill-rule="evenodd" fill-opacity="1"/>
<defs>
  <clipPath id="clip544">
    <rect x="1389" y="31" width="408" height="508"/>
  </clipPath>
</defs>
<polyline clip-path="url(#clip544)" style="stroke:#009af9; stroke-linecap:round; stroke-linejoin:round; stroke-width:4; stroke-opacity:1; fill:none" points="1400.69,242.231 1410.81,308.514 1420.92,360.994 1431.04,237.414 1441.16,207.738 1451.27,370.658 1461.39,371.71 1471.5,184.315 1481.62,207.648 1491.73,403.383 1501.85,386.799 1511.96,140.931 1522.08,192.76 1532.19,469.859 1542.31,390.605 1552.43,45.8387 1562.54,251.566 1572.66,523.926 1582.77,287.608 1592.89,66.4342 1603,332.357 1613.12,461.236 1623.23,267.431 1633.35,117.945 1643.47,306.18 1653.58,471.682 1663.7,263.694 1673.81,79.3778 1683.93,379.598 1694.04,461.577 1704.16,167.892 1714.27,171.949 1724.39,431.372 1734.5,331.005 1744.62,184.899 1754.74,282.757 1764.85,351.555 1774.97,273.705 1785.08,274.209 "/>
<polyline clip-path="url(#clip544)" style="stroke:#000000; stroke-linecap:round; stroke-linejoin:round; stroke-width:4; stroke-opacity:1; fill:none" points="981.71,289.322 2204.07,289.322 "/>
<path clip-path="url(#clip540)" d="M1380.9 140.271 Q1383.83 140.899 1385.47 142.884 Q1387.13 144.869 1387.13 147.786 Q1387.13 152.262 1384.06 154.713 Q1380.98 157.164 1375.31 157.164 Q1373.4 157.164 1371.38 156.779 Q1369.37 156.414 1367.22 155.665 L1367.22 151.715 Q1368.93 152.708 1370.95 153.214 Q1372.98 153.72 1375.18 153.72 Q1379.03 153.72 1381.04 152.201 Q1383.06 150.682 1383.06 147.786 Q1383.06 145.112 1381.18 143.613 Q1379.32 142.094 1375.97 142.094 L1372.45 142.094 L1372.45 138.732 L1376.14 138.732 Q1379.15 138.732 1380.75 137.537 Q1382.35 136.322 1382.35 134.053 Q1382.35 131.724 1380.69 130.488 Q1379.05 129.233 1375.97 129.233 Q1374.29 129.233 1372.37 129.597 Q1370.44 129.962 1368.14 130.731 L1368.14 127.086 Q1370.47 126.437 1372.49 126.113 Q1374.54 125.789 1376.34 125.789 Q1381 125.789 1383.71 127.916 Q1386.43 130.023 1386.43 133.628 Q1386.43 136.139 1384.99 137.881 Q1383.55 139.603 1380.9 140.271 Z" fill="#ff0000" fill-rule="nonzero" fill-opacity="1" /><path clip-path="url(#clip540)" d="M1395.01 155.948 L1395.01 152.222 Q1396.55 152.951 1398.13 153.336 Q1399.71 153.72 1401.23 153.72 Q1405.28 153.72 1407.41 151.006 Q1409.56 148.272 1409.86 142.722 Q1408.69 144.464 1406.88 145.396 Q1405.08 146.327 1402.89 146.327 Q1398.36 146.327 1395.7 143.593 Q1393.07 140.838 1393.07 136.079 Q1393.07 131.42 1395.82 128.605 Q1398.58 125.789 1403.16 125.789 Q1408.4 125.789 1411.16 129.82 Q1413.93 133.83 1413.93 141.487 Q1413.93 148.636 1410.53 152.91 Q1407.15 157.164 1401.41 157.164 Q1399.87 157.164 1398.29 156.86 Q1396.71 156.556 1395.01 155.948 M1403.16 143.127 Q1405.91 143.127 1407.51 141.244 Q1409.13 139.36 1409.13 136.079 Q1409.13 132.818 1407.51 130.934 Q1405.91 129.03 1403.16 129.03 Q1400.4 129.03 1398.78 130.934 Q1397.18 132.818 1397.18 136.079 Q1397.18 139.36 1398.78 141.244 Q1400.4 143.127 1403.16 143.127 Z" fill="#ff0000" fill-rule="nonzero" fill-opacity="1" /><path clip-path="url(#clip540)" d="M1983.54 538.269 L2390.99 538.269 L2390.99 31.4961 L1983.54 31.4961  Z" fill="#ffffff" fill-rule="evenodd" fill-opacity="1"/>
<defs>
  <clipPath id="clip545">
    <rect x="1983" y="31" width="408" height="508"/>
  </clipPath>
</defs>
<polyline clip-path="url(#clip545)" style="stroke:#009af9; stroke-linecap:round; stroke-linejoin:round; stroke-width:4; stroke-opacity:1; fill:none" points="1995.07,293.248 2004.93,258.959 2014.78,227.55 2024.64,230.714 2034.5,424.211 2044.35,174.98 2054.21,172.522 2064.06,268.289 2073.92,523.926 2083.78,45.8387 2093.63,124.847 2103.49,517.276 2113.34,196.955 2123.2,266.263 2133.06,174.843 2142.91,257.782 2152.77,409.808 2162.63,259.104 2172.48,105.059 2182.34,303.62 2192.19,289.192 2202.05,438.476 2211.91,59.0823 2221.76,193.817 2231.62,475.154 2241.47,121.807 2251.33,419.427 2261.19,125.013 2271.04,234.2 2280.9,280.819 2290.75,471.765 2300.61,83.9816 2310.47,184.193 2320.32,359.318 2330.18,355.847 2340.04,161.775 2349.89,226.035 2359.75,327.772 2369.6,261.455 2379.46,254.597 "/>
<polyline clip-path="url(#clip545)" style="stroke:#000000; stroke-linecap:round; stroke-linejoin:round; stroke-width:4; stroke-opacity:1; fill:none" points="1576.09,263.592 2798.44,263.592 "/>
<path clip-path="url(#clip540)" d="M1974.87 129.901 L1964.54 146.044 L1974.87 146.044 L1974.87 129.901 M1973.79 126.336 L1978.94 126.336 L1978.94 146.044 L1983.25 146.044 L1983.25 149.447 L1978.94 149.447 L1978.94 156.576 L1974.87 156.576 L1974.87 149.447 L1961.21 149.447 L1961.21 145.497 L1973.79 126.336 Z" fill="#ff0000" fill-rule="nonzero" fill-opacity="1" /><path clip-path="url(#clip540)" d="M1998.77 129.03 Q1995.61 129.03 1994.01 132.149 Q1992.43 135.248 1992.43 141.487 Q1992.43 147.705 1994.01 150.824 Q1995.61 153.923 1998.77 153.923 Q2001.95 153.923 2003.53 150.824 Q2005.13 147.705 2005.13 141.487 Q2005.13 135.248 2003.53 132.149 Q2001.95 129.03 1998.77 129.03 M1998.77 125.789 Q2003.85 125.789 2006.52 129.82 Q2009.22 133.83 2009.22 141.487 Q2009.22 149.123 2006.52 153.153 Q2003.85 157.164 1998.77 157.164 Q1993.68 157.164 1990.99 153.153 Q1988.31 149.123 1988.31 141.487 Q1988.31 133.83 1990.99 129.82 Q1993.68 125.789 1998.77 125.789 Z" fill="#ff0000" fill-rule="nonzero" fill-opacity="1" /><path clip-path="url(#clip540)" d="M2577.92 538.269 L2985.37 538.269 L2985.37 31.4961 L2577.92 31.4961  Z" fill="#ffffff" fill-rule="evenodd" fill-opacity="1"/>
<defs>
  <clipPath id="clip546">
    <rect x="2577" y="31" width="408" height="508"/>
  </clipPath>
</defs>
<polyline clip-path="url(#clip546)" style="stroke:#009af9; stroke-linecap:round; stroke-linejoin:round; stroke-width:4; stroke-opacity:1; fill:none" points="2589.45,219.916 2599.84,248.365 2610.23,327.482 2620.62,220.754 2631,59.5516 2641.39,523.926 2651.78,195.142 2662.17,62.2803 2672.56,341.672 2682.95,383.314 2693.34,133.19 2703.73,165.738 2714.12,371.743 2724.5,269.007 2734.89,116.071 2745.28,361.54 2755.67,245.714 2766.06,96.4286 2776.45,463.589 2786.84,149.87 2797.23,206.913 2807.62,233.764 2818,370.849 2828.39,232.752 2838.78,45.8387 2849.17,432.304 2859.56,283.585 2869.95,91.8753 2880.34,346.273 2890.73,202.566 2901.12,289.067 2911.5,275.398 2921.89,102.688 2932.28,418.433 2942.67,172.813 2953.06,244.199 2963.45,248.955 2973.84,262.485 "/>
<polyline clip-path="url(#clip546)" style="stroke:#000000; stroke-linecap:round; stroke-linejoin:round; stroke-width:4; stroke-opacity:1; fill:none" points="2170.47,247.749 3392.82,247.749 "/>
<path clip-path="url(#clip540)" d="M2569.34 140.271 Q2572.28 140.899 2573.92 142.884 Q2575.58 144.869 2575.58 147.786 Q2575.58 152.262 2572.5 154.713 Q2569.42 157.164 2563.75 157.164 Q2561.84 157.164 2559.82 156.779 Q2557.81 156.414 2555.67 155.665 L2555.67 151.715 Q2557.37 152.708 2559.39 153.214 Q2561.42 153.72 2563.63 153.72 Q2567.47 153.72 2569.48 152.201 Q2571.51 150.682 2571.51 147.786 Q2571.51 145.112 2569.62 143.613 Q2567.76 142.094 2564.42 142.094 L2560.89 142.094 L2560.89 138.732 L2564.58 138.732 Q2567.6 138.732 2569.2 137.537 Q2570.8 136.322 2570.8 134.053 Q2570.8 131.724 2569.14 130.488 Q2567.5 129.233 2564.42 129.233 Q2562.74 129.233 2560.81 129.597 Q2558.89 129.962 2556.58 130.731 L2556.58 127.086 Q2558.91 126.437 2560.93 126.113 Q2562.98 125.789 2564.78 125.789 Q2569.44 125.789 2572.15 127.916 Q2574.87 130.023 2574.87 133.628 Q2574.87 136.139 2573.43 137.881 Q2571.99 139.603 2569.34 140.271 Z" fill="#ff0000" fill-rule="nonzero" fill-opacity="1" /><path clip-path="url(#clip540)" d="M2592.08 142.216 Q2589.17 142.216 2587.49 143.775 Q2585.83 145.335 2585.83 148.069 Q2585.83 150.804 2587.49 152.363 Q2589.17 153.923 2592.08 153.923 Q2595 153.923 2596.68 152.363 Q2598.36 150.783 2598.36 148.069 Q2598.36 145.335 2596.68 143.775 Q2595.02 142.216 2592.08 142.216 M2587.99 140.474 Q2585.36 139.826 2583.88 138.023 Q2582.42 136.22 2582.42 133.628 Q2582.42 130.002 2585 127.896 Q2587.59 125.789 2592.08 125.789 Q2596.6 125.789 2599.17 127.896 Q2601.75 130.002 2601.75 133.628 Q2601.75 136.22 2600.27 138.023 Q2598.81 139.826 2596.2 140.474 Q2599.15 141.163 2600.79 143.168 Q2602.45 145.173 2602.45 148.069 Q2602.45 152.465 2599.76 154.814 Q2597.09 157.164 2592.08 157.164 Q2587.08 157.164 2584.39 154.814 Q2581.71 152.465 2581.71 148.069 Q2581.71 145.173 2583.37 143.168 Q2585.04 141.163 2587.99 140.474 M2586.49 134.013 Q2586.49 136.362 2587.95 137.679 Q2589.43 138.995 2592.08 138.995 Q2594.72 138.995 2596.2 137.679 Q2597.69 136.362 2597.69 134.013 Q2597.69 131.663 2596.2 130.347 Q2594.72 129.03 2592.08 129.03 Q2589.43 129.03 2587.95 130.347 Q2586.49 131.663 2586.49 134.013 Z" fill="#ff0000" fill-rule="nonzero" fill-opacity="1" /><path clip-path="url(#clip540)" d="M3172.3 538.269 L3579.75 538.269 L3579.75 31.4961 L3172.3 31.4961  Z" fill="#ffffff" fill-rule="evenodd" fill-opacity="1"/>
<defs>
  <clipPath id="clip547">
    <rect x="3172" y="31" width="408" height="508"/>
  </clipPath>
</defs>
<polyline clip-path="url(#clip547)" style="stroke:#009af9; stroke-linecap:round; stroke-linejoin:round; stroke-width:4; stroke-opacity:1; fill:none" points="3183.83,267.792 3194.22,289.402 3204.61,304.002 3214.99,317.521 3225.38,326.341 3235.77,319.328 3246.16,301.491 3256.55,265.748 3266.94,219.228 3277.33,174.052 3287.72,127.992 3298.11,86.1145 3308.49,54.6953 3318.88,45.8387 3329.27,56.1297 3339.66,87.1809 3350.05,142.916 3360.44,216.385 3370.83,293.862 3381.22,378.766 3391.61,452.567 3401.99,502.252 3412.38,523.926 3422.77,512.704 3433.16,463.401 3443.55,397.755 3453.94,315.329 3464.33,226.957 3474.72,147.104 3485.11,94.1233 3495.49,61.3511 3505.88,54.6019 3516.27,74.2114 3526.66,103.26 3537.05,141.416 3547.44,176.611 3557.83,210.453 3568.22,232.574 "/>
<polyline clip-path="url(#clip547)" style="stroke:#000000; stroke-linecap:round; stroke-linejoin:round; stroke-width:4; stroke-opacity:1; fill:none" points="2764.84,241.633 3987.2,241.633 "/>
<path clip-path="url(#clip540)" d="M3163.72 140.271 Q3166.65 140.899 3168.29 142.884 Q3169.95 144.869 3169.95 147.786 Q3169.95 152.262 3166.88 154.713 Q3163.8 157.164 3158.13 157.164 Q3156.22 157.164 3154.2 156.779 Q3152.19 156.414 3150.04 155.665 L3150.04 151.715 Q3151.75 152.708 3153.77 153.214 Q3155.8 153.72 3158 153.72 Q3161.85 153.72 3163.86 152.201 Q3165.88 150.682 3165.88 147.786 Q3165.88 145.112 3164 143.613 Q3162.14 142.094 3158.79 142.094 L3155.27 142.094 L3155.27 138.732 L3158.96 138.732 Q3161.97 138.732 3163.57 137.537 Q3165.17 136.322 3165.17 134.053 Q3165.17 131.724 3163.51 130.488 Q3161.87 129.233 3158.79 129.233 Q3157.11 129.233 3155.19 129.597 Q3153.27 129.962 3150.96 130.731 L3150.96 127.086 Q3153.29 126.437 3155.31 126.113 Q3157.36 125.789 3159.16 125.789 Q3163.82 125.789 3166.53 127.916 Q3169.25 130.023 3169.25 133.628 Q3169.25 136.139 3167.81 137.881 Q3166.37 139.603 3163.72 140.271 Z" fill="#ff0000" fill-rule="nonzero" fill-opacity="1" /><path clip-path="url(#clip540)" d="M3186.46 142.216 Q3183.55 142.216 3181.86 143.775 Q3180.2 145.335 3180.2 148.069 Q3180.2 150.804 3181.86 152.363 Q3183.55 153.923 3186.46 153.923 Q3189.38 153.923 3191.06 152.363 Q3192.74 150.783 3192.74 148.069 Q3192.74 145.335 3191.06 143.775 Q3189.4 142.216 3186.46 142.216 M3182.37 140.474 Q3179.74 139.826 3178.26 138.023 Q3176.8 136.22 3176.8 133.628 Q3176.8 130.002 3179.37 127.896 Q3181.97 125.789 3186.46 125.789 Q3190.98 125.789 3193.55 127.896 Q3196.12 130.002 3196.12 133.628 Q3196.12 136.22 3194.65 138.023 Q3193.19 139.826 3190.57 140.474 Q3193.53 141.163 3195.17 143.168 Q3196.83 145.173 3196.83 148.069 Q3196.83 152.465 3194.14 154.814 Q3191.47 157.164 3186.46 157.164 Q3181.46 157.164 3178.77 154.814 Q3176.09 152.465 3176.09 148.069 Q3176.09 145.173 3177.75 143.168 Q3179.41 141.163 3182.37 140.474 M3180.87 134.013 Q3180.87 136.362 3182.33 137.679 Q3183.81 138.995 3186.46 138.995 Q3189.1 138.995 3190.57 137.679 Q3192.07 136.362 3192.07 134.013 Q3192.07 131.663 3190.57 130.347 Q3189.1 129.03 3186.46 129.03 Q3183.81 129.03 3182.33 130.347 Q3180.87 131.663 3180.87 134.013 Z" fill="#ff0000" fill-rule="nonzero" fill-opacity="1" /><path clip-path="url(#clip540)" d="M3766.67 538.269 L4174.13 538.269 L4174.13 31.4961 L3766.67 31.4961  Z" fill="#ffffff" fill-rule="evenodd" fill-opacity="1"/>
<defs>
  <clipPath id="clip548">
    <rect x="3766" y="31" width="408" height="508"/>
  </clipPath>
</defs>
<polyline clip-path="url(#clip548)" style="stroke:#009af9; stroke-linecap:round; stroke-linejoin:round; stroke-width:4; stroke-opacity:1; fill:none" points="3778.21,234.735 3791.46,257.687 3804.72,308.968 3817.97,154.972 3831.22,331.824 3844.48,213.558 3857.73,261.897 3870.99,319.845 3884.24,45.8387 3897.5,523.926 3910.75,121.32 3924.01,130.137 3937.26,497.298 3950.52,115.193 3963.77,230.558 3977.03,288.43 3990.28,318.352 4003.54,146.083 4016.79,292.109 4030.05,290.433 4043.3,189.366 4056.56,340.153 4069.81,116.031 4083.07,393.884 4096.32,199.181 4109.58,187.961 4122.83,356.868 4136.08,186.204 4149.34,265.496 4162.59,256.079 "/>
<polyline clip-path="url(#clip548)" style="stroke:#000000; stroke-linecap:round; stroke-linejoin:round; stroke-width:4; stroke-opacity:1; fill:none" points="3359.22,253.026 4581.58,253.026 "/>
<path clip-path="url(#clip540)" d="M3755.19 140.271 Q3758.12 140.899 3759.77 142.884 Q3761.43 144.869 3761.43 147.786 Q3761.43 152.262 3758.35 154.713 Q3755.27 157.164 3749.6 157.164 Q3747.69 157.164 3745.67 156.779 Q3743.66 156.414 3741.52 155.665 L3741.52 151.715 Q3743.22 152.708 3745.24 153.214 Q3747.27 153.72 3749.48 153.72 Q3753.32 153.72 3755.33 152.201 Q3757.36 150.682 3757.36 147.786 Q3757.36 145.112 3755.47 143.613 Q3753.61 142.094 3750.27 142.094 L3746.74 142.094 L3746.74 138.732 L3750.43 138.732 Q3753.45 138.732 3755.05 137.537 Q3756.65 136.322 3756.65 134.053 Q3756.65 131.724 3754.99 130.488 Q3753.34 129.233 3750.27 129.233 Q3748.59 129.233 3746.66 129.597 Q3744.74 129.962 3742.43 130.731 L3742.43 127.086 Q3744.76 126.437 3746.78 126.113 Q3748.83 125.789 3750.63 125.789 Q3755.29 125.789 3758 127.916 Q3760.72 130.023 3760.72 133.628 Q3760.72 136.139 3759.28 137.881 Q3757.84 139.603 3755.19 140.271 Z" fill="#ff0000" fill-rule="nonzero" fill-opacity="1" /><path clip-path="url(#clip540)" d="M3777.93 129.03 Q3774.77 129.03 3773.17 132.149 Q3771.59 135.248 3771.59 141.487 Q3771.59 147.705 3773.17 150.824 Q3774.77 153.923 3777.93 153.923 Q3781.11 153.923 3782.69 150.824 Q3784.29 147.705 3784.29 141.487 Q3784.29 135.248 3782.69 132.149 Q3781.11 129.03 3777.93 129.03 M3777.93 125.789 Q3783.02 125.789 3785.69 129.82 Q3788.39 133.83 3788.39 141.487 Q3788.39 149.123 3785.69 153.153 Q3783.02 157.164 3777.93 157.164 Q3772.85 157.164 3770.16 153.153 Q3767.48 149.123 3767.48 141.487 Q3767.48 133.83 3770.16 129.82 Q3772.85 125.789 3777.93 125.789 Z" fill="#ff0000" fill-rule="nonzero" fill-opacity="1" /><path clip-path="url(#clip540)" d="M4361.05 538.269 L4768.5 538.269 L4768.5 31.4961 L4361.05 31.4961  Z" fill="#ffffff" fill-rule="evenodd" fill-opacity="1"/>
<defs>
  <clipPath id="clip549">
    <rect x="4361" y="31" width="408" height="508"/>
  </clipPath>
</defs>
<polyline clip-path="url(#clip549)" style="stroke:#009af9; stroke-linecap:round; stroke-linejoin:round; stroke-width:4; stroke-opacity:1; fill:none" points="4372.58,314.35 4386.31,260.263 4400.04,368.848 4413.77,250.361 4427.5,282.592 4441.22,379.451 4454.95,252.734 4468.68,228.23 4482.41,498.358 4496.14,104.359 4509.87,340.003 4523.59,459.156 4537.32,45.8387 4551.05,508.666 4564.78,213.599 4578.51,271.625 4592.23,419.752 4605.96,140.186 4619.69,421.079 4633.42,314.637 4647.15,154.877 4660.88,457.961 4674.6,293.56 4688.33,129.844 4702.06,523.926 4715.79,181.58 4729.52,280.277 4743.24,378.867 4756.97,258.712 "/>
<polyline clip-path="url(#clip549)" style="stroke:#000000; stroke-linecap:round; stroke-linejoin:round; stroke-width:4; stroke-opacity:1; fill:none" points="3953.6,301.437 5175.96,301.437 "/>
<path clip-path="url(#clip540)" d="M4340.36 153.133 L4354.64 153.133 L4354.64 156.576 L4335.44 156.576 L4335.44 153.133 Q4337.77 150.723 4341.78 146.672 Q4345.81 142.601 4346.84 141.426 Q4348.81 139.218 4349.58 137.699 Q4350.37 136.16 4350.37 134.681 Q4350.37 132.271 4348.67 130.752 Q4346.99 129.233 4344.27 129.233 Q4342.35 129.233 4340.2 129.901 Q4338.07 130.569 4335.64 131.926 L4335.64 127.795 Q4338.11 126.802 4340.26 126.296 Q4342.41 125.789 4344.19 125.789 Q4348.89 125.789 4351.69 128.139 Q4354.48 130.488 4354.48 134.418 Q4354.48 136.281 4353.77 137.962 Q4353.08 139.623 4351.24 141.892 Q4350.73 142.479 4348.02 145.294 Q4345.31 148.09 4340.36 153.133 Z" fill="#ff0000" fill-rule="nonzero" fill-opacity="1" /><path clip-path="url(#clip540)" d="M4363.35 155.948 L4363.35 152.222 Q4364.89 152.951 4366.47 153.336 Q4368.05 153.72 4369.57 153.72 Q4373.62 153.72 4375.75 151.006 Q4377.89 148.272 4378.2 142.722 Q4377.02 144.464 4375.22 145.396 Q4373.42 146.327 4371.23 146.327 Q4366.69 146.327 4364.04 143.593 Q4361.41 140.838 4361.41 136.079 Q4361.41 131.42 4364.16 128.605 Q4366.92 125.789 4371.49 125.789 Q4376.74 125.789 4379.49 129.82 Q4382.27 133.83 4382.27 141.487 Q4382.27 148.636 4378.87 152.91 Q4375.48 157.164 4369.75 157.164 Q4368.21 157.164 4366.63 156.86 Q4365.05 156.556 4363.35 155.948 M4371.49 143.127 Q4374.25 143.127 4375.85 141.244 Q4377.47 139.36 4377.47 136.079 Q4377.47 132.818 4375.85 130.934 Q4374.25 129.03 4371.49 129.03 Q4368.74 129.03 4367.12 130.934 Q4365.52 132.818 4365.52 136.079 Q4365.52 139.36 4367.12 141.244 Q4368.74 143.127 4371.49 143.127 Z" fill="#ff0000" fill-rule="nonzero" fill-opacity="1" /><path clip-path="url(#clip540)" d="M201.54 1126.46 L608.992 1126.46 L608.992 619.685 L201.54 619.685  Z" fill="#ffffff" fill-rule="evenodd" fill-opacity="1"/>
<defs>
  <clipPath id="clip5410">
    <rect x="201" y="619" width="408" height="508"/>
  </clipPath>
</defs>
<polyline clip-path="url(#clip5410)" style="stroke:#009af9; stroke-linecap:round; stroke-linejoin:round; stroke-width:4; stroke-opacity:1; fill:none" points="213.071,878.791 225.884,903.408 238.697,823.299 251.51,947.52 264.323,820.682 277.136,922.129 289.949,844.429 302.762,880.885 315.575,933.406 328.388,789.356 341.201,947.237 354.014,828.872 366.827,966.173 379.64,702.721 392.453,1112.12 405.266,663.42 418.079,1050.35 430.892,704.658 443.705,1080.72 456.518,715.788 469.331,928.473 482.144,893.622 494.957,904.711 507.769,821.545 520.582,837.263 533.395,1077 546.208,634.028 559.021,1029.42 571.834,828.831 584.647,895.416 597.46,862.979 "/>
<polyline clip-path="url(#clip5410)" style="stroke:#000000; stroke-linecap:round; stroke-linejoin:round; stroke-width:4; stroke-opacity:1; fill:none" points="-205.912,878.271 1016.44,878.271 "/>
<path clip-path="url(#clip540)" d="M191.033 728.46 Q193.969 729.088 195.61 731.073 Q197.271 733.058 197.271 735.975 Q197.271 740.451 194.192 742.902 Q191.114 745.353 185.442 745.353 Q183.538 745.353 181.513 744.968 Q179.508 744.603 177.361 743.854 L177.361 739.904 Q179.062 740.897 181.088 741.403 Q183.113 741.909 185.321 741.909 Q189.169 741.909 191.174 740.39 Q193.2 738.871 193.2 735.975 Q193.2 733.301 191.316 731.802 Q189.453 730.283 186.111 730.283 L182.586 730.283 L182.586 726.921 L186.273 726.921 Q189.291 726.921 190.891 725.726 Q192.491 724.511 192.491 722.242 Q192.491 719.913 190.83 718.677 Q189.189 717.422 186.111 717.422 Q184.43 717.422 182.505 717.786 Q180.581 718.151 178.272 718.92 L178.272 715.275 Q180.602 714.626 182.627 714.302 Q184.673 713.978 186.475 713.978 Q191.134 713.978 193.848 716.105 Q196.562 718.212 196.562 721.817 Q196.562 724.328 195.124 726.07 Q193.686 727.792 191.033 728.46 Z" fill="#ff0000" fill-rule="nonzero" fill-opacity="1" /><path clip-path="url(#clip540)" d="M205.737 741.322 L212.421 741.322 L212.421 718.252 L205.15 719.71 L205.15 715.984 L212.381 714.525 L216.472 714.525 L216.472 741.322 L223.156 741.322 L223.156 744.765 L205.737 744.765 L205.737 741.322 Z" fill="#ff0000" fill-rule="nonzero" fill-opacity="1" /><path clip-path="url(#clip540)" d="M795.918 1126.46 L1203.37 1126.46 L1203.37 619.685 L795.918 619.685  Z" fill="#ffffff" fill-rule="evenodd" fill-opacity="1"/>
<defs>
  <clipPath id="clip5411">
    <rect x="795" y="619" width="408" height="508"/>
  </clipPath>
</defs>
<polyline clip-path="url(#clip5411)" style="stroke:#009af9; stroke-linecap:round; stroke-linejoin:round; stroke-width:4; stroke-opacity:1; fill:none" points="807.45,868.902 822.234,843.394 837.018,912.784 851.802,771.628 866.586,976.435 881.37,755.142 896.155,929.974 910.939,843.043 925.723,845.512 940.507,920.133 955.291,748.921 970.076,1021.51 984.86,686.379 999.644,1020.77 1014.43,749.633 1029.21,887.507 1044,968.249 1058.78,634.028 1073.56,1112.12 1088.35,693.288 1103.13,955.122 1117.92,768.937 1132.7,987.064 1147.49,756.09 1162.27,885.377 1177.05,900.798 1191.84,830.259 "/>
<polyline clip-path="url(#clip5411)" style="stroke:#000000; stroke-linecap:round; stroke-linejoin:round; stroke-width:4; stroke-opacity:1; fill:none" points="388.466,862.245 1610.82,862.245 "/>
<path clip-path="url(#clip540)" d="M774.487 741.322 L788.766 741.322 L788.766 744.765 L769.565 744.765 L769.565 741.322 Q771.894 738.912 775.905 734.861 Q779.935 730.79 780.968 729.615 Q782.933 727.407 783.703 725.888 Q784.493 724.349 784.493 722.87 Q784.493 720.46 782.791 718.941 Q781.11 717.422 778.396 717.422 Q776.472 717.422 774.325 718.09 Q772.198 718.758 769.768 720.115 L769.768 715.984 Q772.239 714.991 774.386 714.485 Q776.533 713.978 778.315 713.978 Q783.014 713.978 785.809 716.328 Q788.604 718.677 788.604 722.607 Q788.604 724.47 787.895 726.151 Q787.207 727.812 785.364 730.081 Q784.857 730.668 782.143 733.483 Q779.429 736.279 774.487 741.322 Z" fill="#ff0000" fill-rule="nonzero" fill-opacity="1" /><path clip-path="url(#clip540)" d="M796.321 714.525 L815.766 714.525 L815.766 716.267 L804.788 744.765 L800.514 744.765 L810.844 717.968 L796.321 717.968 L796.321 714.525 Z" fill="#ff0000" fill-rule="nonzero" fill-opacity="1" /><path clip-path="url(#clip540)" d="M1389.16 1126.46 L1796.61 1126.46 L1796.61 619.685 L1389.16 619.685  Z" fill="#ffffff" fill-rule="evenodd" fill-opacity="1"/>
<defs>
  <clipPath id="clip5412">
    <rect x="1389" y="619" width="408" height="508"/>
  </clipPath>
</defs>
<polyline clip-path="url(#clip5412)" style="stroke:#009af9; stroke-linecap:round; stroke-linejoin:round; stroke-width:4; stroke-opacity:1; fill:none" points="1400.69,840.162 1410.3,903.914 1419.91,850.361 1429.52,797.98 1439.13,955.681 1448.74,866.469 1458.35,747.358 1467.96,962.547 1477.57,903.885 1487.18,690.57 1496.79,1050.54 1506.4,770.066 1516.01,849.734 1525.62,908.142 1535.23,872.474 1544.84,775.82 1554.45,921.654 1564.06,965.001 1573.67,634.028 1583.28,998.27 1592.89,962.625 1602.5,656.59 1612.11,929.652 1621.72,1018.99 1631.33,684.435 1640.94,826.312 1650.55,1112.12 1660.16,647.967 1669.77,825.935 1679.38,1108.84 1688.98,651.101 1698.59,843.774 1708.2,1081.95 1717.81,649.41 1727.42,902.525 1737.03,975.422 1746.64,752.609 1756.25,865.03 1765.86,941.684 1775.47,797.089 1785.08,881.916 "/>
<polyline clip-path="url(#clip5412)" style="stroke:#000000; stroke-linecap:round; stroke-linejoin:round; stroke-width:4; stroke-opacity:1; fill:none" points="981.71,862.74 2204.07,862.74 "/>
<path clip-path="url(#clip540)" d="M1381.27 718.09 L1370.94 734.233 L1381.27 734.233 L1381.27 718.09 M1380.2 714.525 L1385.34 714.525 L1385.34 734.233 L1389.66 734.233 L1389.66 737.636 L1385.34 737.636 L1385.34 744.765 L1381.27 744.765 L1381.27 737.636 L1367.62 737.636 L1367.62 733.686 L1380.2 714.525 Z" fill="#ff0000" fill-rule="nonzero" fill-opacity="1" /><path clip-path="url(#clip540)" d="M1397.13 741.322 L1403.81 741.322 L1403.81 718.252 L1396.54 719.71 L1396.54 715.984 L1403.77 714.525 L1407.86 714.525 L1407.86 741.322 L1414.55 741.322 L1414.55 744.765 L1397.13 744.765 L1397.13 741.322 Z" fill="#ff0000" fill-rule="nonzero" fill-opacity="1" /><path clip-path="url(#clip540)" d="M1983.54 1126.46 L2390.99 1126.46 L2390.99 619.685 L1983.54 619.685  Z" fill="#ffffff" fill-rule="evenodd" fill-opacity="1"/>
<defs>
  <clipPath id="clip5413">
    <rect x="1983" y="619" width="408" height="508"/>
  </clipPath>
</defs>
<polyline clip-path="url(#clip5413)" style="stroke:#009af9; stroke-linecap:round; stroke-linejoin:round; stroke-width:4; stroke-opacity:1; fill:none" points="1995.07,821.931 2011.78,819.908 2028.5,945.144 2045.21,1050.61 2061.92,880.415 2078.63,634.028 2095.35,729.476 2112.06,1051.21 2128.77,1112.12 2145.48,875.465 2162.2,682 2178.91,739.616 2195.62,911.151 2212.33,1027.23 2229.05,1010.1 2245.76,837.801 2262.47,682.089 2279.18,758.754 2295.9,1015.46 2312.61,1053.13 2329.32,847.945 2346.03,738.309 2362.75,841.328 2379.46,940.312 "/>
<polyline clip-path="url(#clip5413)" style="stroke:#000000; stroke-linecap:round; stroke-linejoin:round; stroke-width:4; stroke-opacity:1; fill:none" points="1576.09,876.291 2798.44,876.291 "/>
<path clip-path="url(#clip540)" d="M1959.57 741.322 L1973.85 741.322 L1973.85 744.765 L1954.65 744.765 L1954.65 741.322 Q1956.98 738.912 1960.99 734.861 Q1965.02 730.79 1966.05 729.615 Q1968.02 727.407 1968.79 725.888 Q1969.58 724.349 1969.58 722.87 Q1969.58 720.46 1967.88 718.941 Q1966.2 717.422 1963.48 717.422 Q1961.56 717.422 1959.41 718.09 Q1957.28 718.758 1954.85 720.115 L1954.85 715.984 Q1957.32 714.991 1959.47 714.485 Q1961.62 713.978 1963.4 713.978 Q1968.1 713.978 1970.9 716.328 Q1973.69 718.677 1973.69 722.607 Q1973.69 724.47 1972.98 726.151 Q1972.29 727.812 1970.45 730.081 Q1969.94 730.668 1967.23 733.483 Q1964.51 736.279 1959.57 741.322 Z" fill="#ff0000" fill-rule="nonzero" fill-opacity="1" /><path clip-path="url(#clip540)" d="M1993.68 718.09 L1983.35 734.233 L1993.68 734.233 L1993.68 718.09 M1992.61 714.525 L1997.75 714.525 L1997.75 734.233 L2002.07 734.233 L2002.07 737.636 L1997.75 737.636 L1997.75 744.765 L1993.68 744.765 L1993.68 737.636 L1980.03 737.636 L1980.03 733.686 L1992.61 714.525 Z" fill="#ff0000" fill-rule="nonzero" fill-opacity="1" /><path clip-path="url(#clip540)" d="M2577.92 1126.46 L2985.37 1126.46 L2985.37 619.685 L2577.92 619.685  Z" fill="#ffffff" fill-rule="evenodd" fill-opacity="1"/>
<defs>
  <clipPath id="clip5414">
    <rect x="2577" y="619" width="408" height="508"/>
  </clipPath>
</defs>
<polyline clip-path="url(#clip5414)" style="stroke:#009af9; stroke-linecap:round; stroke-linejoin:round; stroke-width:4; stroke-opacity:1; fill:none" points="2589.45,906.629 2599.56,887.609 2609.68,801.785 2619.8,823.47 2629.91,970.47 2640.03,926.29 2650.14,756.98 2660.26,767.063 2670.37,998.244 2680.49,989.279 2690.6,759.696 2700.72,702.073 2710.84,971.283 2720.95,1055.15 2731.07,801.866 2741.18,652.7 2751.3,888.308 2761.41,1111.48 2771.53,886.903 2781.64,634.028 2791.76,787.337 2801.87,1112.12 2811.99,966.1 2822.11,683.08 2832.22,705.269 2842.34,1045.83 2852.45,1045.93 2862.57,728.058 2872.68,682.098 2882.8,977.271 2892.91,1047.44 2903.03,803.891 2913.15,689.518 2923.26,926.642 2933.38,985.529 2943.49,853.07 2953.61,770.644 2963.72,899.696 2973.84,895.145 "/>
<polyline clip-path="url(#clip5414)" style="stroke:#000000; stroke-linecap:round; stroke-linejoin:round; stroke-width:4; stroke-opacity:1; fill:none" points="2170.47,868.645 3392.82,868.645 "/>
<path clip-path="url(#clip540)" d="M2569.65 728.46 Q2572.59 729.088 2574.23 731.073 Q2575.89 733.058 2575.89 735.975 Q2575.89 740.451 2572.81 742.902 Q2569.73 745.353 2564.06 745.353 Q2562.16 745.353 2560.13 744.968 Q2558.13 744.603 2555.98 743.854 L2555.98 739.904 Q2557.68 740.897 2559.71 741.403 Q2561.73 741.909 2563.94 741.909 Q2567.79 741.909 2569.79 740.39 Q2571.82 738.871 2571.82 735.975 Q2571.82 733.301 2569.94 731.802 Q2568.07 730.283 2564.73 730.283 L2561.21 730.283 L2561.21 726.921 L2564.89 726.921 Q2567.91 726.921 2569.51 725.726 Q2571.11 724.511 2571.11 722.242 Q2571.11 719.913 2569.45 718.677 Q2567.81 717.422 2564.73 717.422 Q2563.05 717.422 2561.13 717.786 Q2559.2 718.151 2556.89 718.92 L2556.89 715.275 Q2559.22 714.626 2561.25 714.302 Q2563.29 713.978 2565.1 713.978 Q2569.75 713.978 2572.47 716.105 Q2575.18 718.212 2575.18 721.817 Q2575.18 724.328 2573.74 726.07 Q2572.31 727.792 2569.65 728.46 Z" fill="#ff0000" fill-rule="nonzero" fill-opacity="1" /><path clip-path="url(#clip540)" d="M2583.77 744.137 L2583.77 740.41 Q2585.31 741.14 2586.89 741.524 Q2588.47 741.909 2589.99 741.909 Q2594.04 741.909 2596.17 739.195 Q2598.31 736.461 2598.62 730.911 Q2597.44 732.653 2595.64 733.585 Q2593.84 734.516 2591.65 734.516 Q2587.11 734.516 2584.46 731.782 Q2581.83 729.027 2581.83 724.268 Q2581.83 719.609 2584.58 716.794 Q2587.33 713.978 2591.91 713.978 Q2597.16 713.978 2599.91 718.009 Q2602.69 722.019 2602.69 729.676 Q2602.69 736.825 2599.28 741.099 Q2595.9 745.353 2590.17 745.353 Q2588.63 745.353 2587.05 745.049 Q2585.47 744.745 2583.77 744.137 M2591.91 731.316 Q2594.67 731.316 2596.27 729.433 Q2597.89 727.549 2597.89 724.268 Q2597.89 721.007 2596.27 719.123 Q2594.67 717.219 2591.91 717.219 Q2589.16 717.219 2587.54 719.123 Q2585.94 721.007 2585.94 724.268 Q2585.94 727.549 2587.54 729.433 Q2589.16 731.316 2591.91 731.316 Z" fill="#ff0000" fill-rule="nonzero" fill-opacity="1" /><path clip-path="url(#clip540)" d="M3172.3 1126.46 L3579.75 1126.46 L3579.75 619.685 L3172.3 619.685  Z" fill="#ffffff" fill-rule="evenodd" fill-opacity="1"/>
<defs>
  <clipPath id="clip5415">
    <rect x="3172" y="619" width="408" height="508"/>
  </clipPath>
</defs>
<polyline clip-path="url(#clip5415)" style="stroke:#009af9; stroke-linecap:round; stroke-linejoin:round; stroke-width:4; stroke-opacity:1; fill:none" points="3183.83,893.958 3195.48,874.64 3207.12,945.848 3218.77,1018.42 3230.42,887.873 3242.07,867.346 3253.72,1023.51 3265.36,1009.26 3277.01,685.738 3288.66,1025.87 3300.31,1059.68 3311.96,733.27 3323.61,918.467 3335.25,961.889 3346.9,1039.33 3358.55,1112.12 3370.2,702.846 3381.85,769.656 3393.49,898.631 3405.14,904.079 3416.79,967.088 3428.44,1098.87 3440.09,725.329 3451.73,1036.55 3463.38,896.151 3475.03,1095.62 3486.68,787.824 3498.33,634.028 3509.98,1084.63 3521.62,978.722 3533.27,1086.75 3544.92,865.394 3556.57,900.338 3568.22,891.002 "/>
<polyline clip-path="url(#clip5415)" style="stroke:#000000; stroke-linecap:round; stroke-linejoin:round; stroke-width:4; stroke-opacity:1; fill:none" points="2764.84,923.622 3987.2,923.622 "/>
<path clip-path="url(#clip540)" d="M3162.2 728.46 Q3165.14 729.088 3166.78 731.073 Q3168.44 733.058 3168.44 735.975 Q3168.44 740.451 3165.36 742.902 Q3162.29 745.353 3156.61 745.353 Q3154.71 745.353 3152.68 744.968 Q3150.68 744.603 3148.53 743.854 L3148.53 739.904 Q3150.23 740.897 3152.26 741.403 Q3154.28 741.909 3156.49 741.909 Q3160.34 741.909 3162.35 740.39 Q3164.37 738.871 3164.37 735.975 Q3164.37 733.301 3162.49 731.802 Q3160.62 730.283 3157.28 730.283 L3153.76 730.283 L3153.76 726.921 L3157.44 726.921 Q3160.46 726.921 3162.06 725.726 Q3163.66 724.511 3163.66 722.242 Q3163.66 719.913 3162 718.677 Q3160.36 717.422 3157.28 717.422 Q3155.6 717.422 3153.68 717.786 Q3151.75 718.151 3149.44 718.92 L3149.44 715.275 Q3151.77 714.626 3153.8 714.302 Q3155.84 713.978 3157.65 713.978 Q3162.31 713.978 3165.02 716.105 Q3167.73 718.212 3167.73 721.817 Q3167.73 724.328 3166.3 726.07 Q3164.86 727.792 3162.2 728.46 Z" fill="#ff0000" fill-rule="nonzero" fill-opacity="1" /><path clip-path="url(#clip540)" d="M3187.44 718.09 L3177.11 734.233 L3187.44 734.233 L3187.44 718.09 M3186.37 714.525 L3191.51 714.525 L3191.51 734.233 L3195.83 734.233 L3195.83 737.636 L3191.51 737.636 L3191.51 744.765 L3187.44 744.765 L3187.44 737.636 L3173.79 737.636 L3173.79 733.686 L3186.37 714.525 Z" fill="#ff0000" fill-rule="nonzero" fill-opacity="1" /><path clip-path="url(#clip540)" d="M3766.67 1126.46 L4174.13 1126.46 L4174.13 619.685 L3766.67 619.685  Z" fill="#ffffff" fill-rule="evenodd" fill-opacity="1"/>
<defs>
  <clipPath id="clip5416">
    <rect x="3766" y="619" width="408" height="508"/>
  </clipPath>
</defs>
<polyline clip-path="url(#clip5416)" style="stroke:#009af9; stroke-linecap:round; stroke-linejoin:round; stroke-width:4; stroke-opacity:1; fill:none" points="3778.21,898.116 3798.44,933.479 3818.67,773.935 3838.9,798.247 3859.13,1035.58 3879.36,891.196 3899.59,634.028 3919.82,919.733 3940.05,1112.12 3960.28,723.626 3980.52,671.289 4000.75,1054.01 4020.98,1000.15 4041.21,662.032 4061.44,818.668 4081.67,1034.94 4101.9,856.969 4122.13,755.9 4142.36,915.976 4162.59,886.979 "/>
<polyline clip-path="url(#clip5416)" style="stroke:#000000; stroke-linecap:round; stroke-linejoin:round; stroke-width:4; stroke-opacity:1; fill:none" points="3359.22,867.068 4581.58,867.068 "/>
<path clip-path="url(#clip540)" d="M3739.4 741.322 L3753.68 741.322 L3753.68 744.765 L3734.48 744.765 L3734.48 741.322 Q3736.81 738.912 3740.82 734.861 Q3744.85 730.79 3745.88 729.615 Q3747.85 727.407 3748.62 725.888 Q3749.41 724.349 3749.41 722.87 Q3749.41 720.46 3747.71 718.941 Q3746.02 717.422 3743.31 717.422 Q3741.39 717.422 3739.24 718.09 Q3737.11 718.758 3734.68 720.115 L3734.68 715.984 Q3737.15 714.991 3739.3 714.485 Q3741.45 713.978 3743.23 713.978 Q3747.93 713.978 3750.72 716.328 Q3753.52 718.677 3753.52 722.607 Q3753.52 724.47 3752.81 726.151 Q3752.12 727.812 3750.28 730.081 Q3749.77 730.668 3747.06 733.483 Q3744.34 736.279 3739.4 741.322 Z" fill="#ff0000" fill-rule="nonzero" fill-opacity="1" /><path clip-path="url(#clip540)" d="M3771.02 717.219 Q3767.86 717.219 3766.26 720.338 Q3764.68 723.437 3764.68 729.676 Q3764.68 735.894 3766.26 739.013 Q3767.86 742.112 3771.02 742.112 Q3774.2 742.112 3775.78 739.013 Q3777.38 735.894 3777.38 729.676 Q3777.38 723.437 3775.78 720.338 Q3774.2 717.219 3771.02 717.219 M3771.02 713.978 Q3776.1 713.978 3778.78 718.009 Q3781.47 722.019 3781.47 729.676 Q3781.47 737.312 3778.78 741.342 Q3776.1 745.353 3771.02 745.353 Q3765.93 745.353 3763.24 741.342 Q3760.57 737.312 3760.57 729.676 Q3760.57 722.019 3763.24 718.009 Q3765.93 713.978 3771.02 713.978 Z" fill="#ff0000" fill-rule="nonzero" fill-opacity="1" /><path clip-path="url(#clip540)" d="M4361.05 1126.46 L4768.5 1126.46 L4768.5 619.685 L4361.05 619.685  Z" fill="#ffffff" fill-rule="evenodd" fill-opacity="1"/>
<defs>
  <clipPath id="clip5417">
    <rect x="4361" y="619" width="408" height="508"/>
  </clipPath>
</defs>
<polyline clip-path="url(#clip5417)" style="stroke:#009af9; stroke-linecap:round; stroke-linejoin:round; stroke-width:4; stroke-opacity:1; fill:none" points="4372.58,856.528 4381.32,882.751 4390.06,939.871 4398.79,929.337 4407.53,812.499 4416.26,784.919 4425,938.463 4433.74,1041.41 4442.47,895.474 4451.21,700.988 4459.94,801.307 4468.68,1048.36 4477.42,1039.16 4486.15,797.595 4494.89,702.905 4503.63,886.641 4512.36,1035.17 4521.1,959.042 4529.83,809.754 4538.57,777.687 4547.31,873.368 4556.04,970.397 4564.78,975.257 4573.51,863.091 4582.25,768.882 4590.99,809.977 4599.72,967.321 4608.46,1043.65 4617.19,908.132 4625.93,679.464 4634.67,748.832 4643.4,1068.9 4652.14,1112.12 4660.88,788.435 4669.61,634.028 4678.35,886.285 4687.08,1099.66 4695.82,962.685 4704.56,750.168 4713.29,786.412 4722.03,942.297 4730.76,967.22 4739.5,878.337 4748.24,849.378 4756.97,881.907 "/>
<polyline clip-path="url(#clip5417)" style="stroke:#000000; stroke-linecap:round; stroke-linejoin:round; stroke-width:4; stroke-opacity:1; fill:none" points="3953.6,885.905 5175.96,885.905 "/>
<path clip-path="url(#clip540)" d="M4353.93 718.09 L4343.6 734.233 L4353.93 734.233 L4353.93 718.09 M4352.86 714.525 L4358 714.525 L4358 734.233 L4362.32 734.233 L4362.32 737.636 L4358 737.636 L4358 744.765 L4353.93 744.765 L4353.93 737.636 L4340.28 737.636 L4340.28 733.686 L4352.86 714.525 Z" fill="#ff0000" fill-rule="nonzero" fill-opacity="1" /><path clip-path="url(#clip540)" d="M4369.12 714.525 L4385.19 714.525 L4385.19 717.968 L4372.87 717.968 L4372.87 725.382 Q4373.76 725.078 4374.65 724.936 Q4375.54 724.774 4376.44 724.774 Q4381.5 724.774 4384.46 727.549 Q4387.41 730.324 4387.41 735.063 Q4387.41 739.945 4384.38 742.659 Q4381.34 745.353 4375.81 745.353 Q4373.9 745.353 4371.92 745.029 Q4369.95 744.704 4367.85 744.056 L4367.85 739.945 Q4369.67 740.937 4371.62 741.423 Q4373.56 741.909 4375.73 741.909 Q4379.23 741.909 4381.28 740.066 Q4383.32 738.223 4383.32 735.063 Q4383.32 731.904 4381.28 730.06 Q4379.23 728.217 4375.73 728.217 Q4374.09 728.217 4372.45 728.582 Q4370.83 728.946 4369.12 729.716 L4369.12 714.525 Z" fill="#ff0000" fill-rule="nonzero" fill-opacity="1" /><path clip-path="url(#clip540)" d="M201.54 1714.65 L608.992 1714.65 L608.992 1207.87 L201.54 1207.87  Z" fill="#ffffff" fill-rule="evenodd" fill-opacity="1"/>
<defs>
  <clipPath id="clip5418">
    <rect x="201" y="1207" width="408" height="508"/>
  </clipPath>
</defs>
<polyline clip-path="url(#clip5418)" style="stroke:#009af9; stroke-linecap:round; stroke-linejoin:round; stroke-width:4; stroke-opacity:1; fill:none" points="213.071,1396.5 226.326,1381.15 239.581,1443.15 252.836,1572.04 266.091,1552.89 279.345,1321.27 292.6,1234.66 305.855,1439.87 319.11,1649.25 332.365,1586.04 345.619,1331.72 358.874,1283.3 372.129,1402.71 385.384,1457.18 398.638,1540.68 411.893,1595.08 425.148,1463.78 438.403,1311.53 451.658,1272.67 464.912,1342.85 478.167,1552.44 491.422,1700.3 504.677,1545.11 517.931,1247.75 531.186,1222.22 544.441,1469.62 557.696,1580.61 570.951,1490.73 584.205,1409 597.46,1411.31 "/>
<polyline clip-path="url(#clip5418)" style="stroke:#000000; stroke-linecap:round; stroke-linejoin:round; stroke-width:4; stroke-opacity:1; fill:none" points="-205.912,1440.75 1016.44,1440.75 "/>
<path clip-path="url(#clip540)" d="M190.054 1316.65 Q192.991 1317.28 194.632 1319.26 Q196.292 1321.25 196.292 1324.16 Q196.292 1328.64 193.214 1331.09 Q190.135 1333.54 184.464 1333.54 Q182.56 1333.54 180.534 1333.16 Q178.529 1332.79 176.382 1332.04 L176.382 1328.09 Q178.084 1329.09 180.109 1329.59 Q182.135 1330.1 184.342 1330.1 Q188.191 1330.1 190.196 1328.58 Q192.221 1327.06 192.221 1324.16 Q192.221 1321.49 190.338 1319.99 Q188.474 1318.47 185.132 1318.47 L181.608 1318.47 L181.608 1315.11 L185.294 1315.11 Q188.312 1315.11 189.912 1313.91 Q191.512 1312.7 191.512 1310.43 Q191.512 1308.1 189.851 1306.87 Q188.211 1305.61 185.132 1305.61 Q183.451 1305.61 181.527 1305.98 Q179.603 1306.34 177.294 1307.11 L177.294 1303.46 Q179.623 1302.82 181.648 1302.49 Q183.694 1302.17 185.497 1302.17 Q190.155 1302.17 192.869 1304.29 Q195.584 1306.4 195.584 1310.01 Q195.584 1312.52 194.145 1314.26 Q192.707 1315.98 190.054 1316.65 Z" fill="#ff0000" fill-rule="nonzero" fill-opacity="1" /><path clip-path="url(#clip540)" d="M212.8 1305.41 Q209.64 1305.41 208.04 1308.53 Q206.46 1311.63 206.46 1317.86 Q206.46 1324.08 208.04 1327.2 Q209.64 1330.3 212.8 1330.3 Q215.98 1330.3 217.56 1327.2 Q219.16 1324.08 219.16 1317.86 Q219.16 1311.63 217.56 1308.53 Q215.98 1305.41 212.8 1305.41 M212.8 1302.17 Q217.884 1302.17 220.557 1306.2 Q223.251 1310.21 223.251 1317.86 Q223.251 1325.5 220.557 1329.53 Q217.884 1333.54 212.8 1333.54 Q207.716 1333.54 205.022 1329.53 Q202.349 1325.5 202.349 1317.86 Q202.349 1310.21 205.022 1306.2 Q207.716 1302.17 212.8 1302.17 Z" fill="#ff0000" fill-rule="nonzero" fill-opacity="1" /><path clip-path="url(#clip540)" d="M795.918 1714.65 L1203.37 1714.65 L1203.37 1207.87 L795.918 1207.87  Z" fill="#ffffff" fill-rule="evenodd" fill-opacity="1"/>
<defs>
  <clipPath id="clip5419">
    <rect x="795" y="1207" width="408" height="508"/>
  </clipPath>
</defs>
<polyline clip-path="url(#clip5419)" style="stroke:#009af9; stroke-linecap:round; stroke-linejoin:round; stroke-width:4; stroke-opacity:1; fill:none" points="807.45,1455.86 817.306,1471.77 827.162,1402.81 837.018,1423.78 846.874,1545.14 856.73,1421.61 866.586,1323.43 876.442,1544.76 886.298,1543.01 896.155,1284.6 906.011,1421 915.867,1627.36 925.723,1369.15 935.579,1323.12 945.435,1591.96 955.291,1454.25 965.147,1324.69 975.004,1531.64 984.86,1486.83 994.716,1310.69 1004.57,1543.59 1014.43,1528.08 1024.28,1259.84 1034.14,1502.8 1044,1631 1053.85,1258.81 1063.71,1376.09 1073.56,1700.3 1083.42,1358.49 1093.28,1248.96 1103.13,1655.75 1112.99,1510.79 1122.85,1222.22 1132.7,1520.58 1142.56,1588 1152.41,1316.84 1162.27,1421.01 1172.13,1525.41 1181.98,1437.86 1191.84,1419.79 "/>
<polyline clip-path="url(#clip5419)" style="stroke:#000000; stroke-linecap:round; stroke-linejoin:round; stroke-width:4; stroke-opacity:1; fill:none" points="388.466,1447.22 1610.82,1447.22 "/>
<path clip-path="url(#clip540)" d="M787.243 1306.28 L776.914 1322.42 L787.243 1322.42 L787.243 1306.28 M786.17 1302.71 L791.315 1302.71 L791.315 1322.42 L795.629 1322.42 L795.629 1325.82 L791.315 1325.82 L791.315 1332.95 L787.243 1332.95 L787.243 1325.82 L773.592 1325.82 L773.592 1321.87 L786.17 1302.71 Z" fill="#ff0000" fill-rule="nonzero" fill-opacity="1" /><path clip-path="url(#clip540)" d="M811.144 1305.41 Q807.984 1305.41 806.384 1308.53 Q804.804 1311.63 804.804 1317.86 Q804.804 1324.08 806.384 1327.2 Q807.984 1330.3 811.144 1330.3 Q814.324 1330.3 815.904 1327.2 Q817.504 1324.08 817.504 1317.86 Q817.504 1311.63 815.904 1308.53 Q814.324 1305.41 811.144 1305.41 M811.144 1302.17 Q816.228 1302.17 818.901 1306.2 Q821.595 1310.21 821.595 1317.86 Q821.595 1325.5 818.901 1329.53 Q816.228 1333.54 811.144 1333.54 Q806.06 1333.54 803.366 1329.53 Q800.692 1325.5 800.692 1317.86 Q800.692 1310.21 803.366 1306.2 Q806.06 1302.17 811.144 1302.17 Z" fill="#ff0000" fill-rule="nonzero" fill-opacity="1" /><path clip-path="url(#clip540)" d="M1389.16 1714.65 L1796.61 1714.65 L1796.61 1207.87 L1389.16 1207.87  Z" fill="#ffffff" fill-rule="evenodd" fill-opacity="1"/>
<defs>
  <clipPath id="clip5420">
    <rect x="1389" y="1207" width="408" height="508"/>
  </clipPath>
</defs>
<polyline clip-path="url(#clip5420)" style="stroke:#009af9; stroke-linecap:round; stroke-linejoin:round; stroke-width:4; stroke-opacity:1; fill:none" points="1400.69,1605.72 1414.42,1555.66 1428.15,1507.28 1441.88,1462.07 1455.61,1417.81 1469.33,1382.19 1483.06,1343.8 1496.79,1311.22 1510.52,1275.07 1524.25,1257.29 1537.98,1241.21 1551.7,1240.59 1565.43,1227.74 1579.16,1222.22 1592.89,1226.86 1606.62,1223.8 1620.34,1224.41 1634.07,1241.39 1647.8,1256.49 1661.53,1278.81 1675.26,1300.8 1688.98,1329.39 1702.71,1363.87 1716.44,1398.65 1730.17,1441.26 1743.9,1473.53 1757.63,1512.53 1771.35,1557.09 1785.08,1603.5 "/>
<polyline clip-path="url(#clip5420)" style="stroke:#000000; stroke-linecap:round; stroke-linejoin:round; stroke-width:4; stroke-opacity:1; fill:none" points="981.71,1700.3 2204.07,1700.3 "/>
<path clip-path="url(#clip540)" d="M1368.47 1310.59 L1382.75 1310.59 L1382.75 1314.04 L1363.55 1314.04 L1363.55 1310.59 Q1365.88 1308.18 1369.89 1304.13 Q1373.92 1300.06 1374.95 1298.89 Q1376.92 1296.68 1377.69 1295.16 Q1378.48 1293.62 1378.48 1292.14 Q1378.48 1289.73 1376.78 1288.21 Q1375.1 1286.69 1372.38 1286.69 Q1370.46 1286.69 1368.31 1287.36 Q1366.18 1288.03 1363.75 1289.39 L1363.75 1285.26 Q1366.22 1284.26 1368.37 1283.76 Q1370.52 1283.25 1372.3 1283.25 Q1377 1283.25 1379.8 1285.6 Q1382.59 1287.95 1382.59 1291.88 Q1382.59 1293.74 1381.88 1295.42 Q1381.19 1297.08 1379.35 1299.35 Q1378.84 1299.94 1376.13 1302.76 Q1373.41 1305.55 1368.47 1310.59 Z" fill="#ff0000" fill-rule="nonzero" fill-opacity="1" /><path clip-path="url(#clip540)" d="M1391.46 1313.41 L1391.46 1309.68 Q1393 1310.41 1394.58 1310.8 Q1396.16 1311.18 1397.68 1311.18 Q1401.73 1311.18 1403.86 1308.47 Q1406 1305.73 1406.31 1300.18 Q1405.13 1301.92 1403.33 1302.86 Q1401.53 1303.79 1399.34 1303.79 Q1394.8 1303.79 1392.15 1301.05 Q1389.52 1298.3 1389.52 1293.54 Q1389.52 1288.88 1392.27 1286.07 Q1395.03 1283.25 1399.6 1283.25 Q1404.85 1283.25 1407.6 1287.28 Q1410.38 1291.29 1410.38 1298.95 Q1410.38 1306.1 1406.98 1310.37 Q1403.59 1314.62 1397.86 1314.62 Q1396.32 1314.62 1394.74 1314.32 Q1393.16 1314.02 1391.46 1313.41 M1399.6 1300.59 Q1402.36 1300.59 1403.96 1298.7 Q1405.58 1296.82 1405.58 1293.54 Q1405.58 1290.28 1403.96 1288.39 Q1402.36 1286.49 1399.6 1286.49 Q1396.85 1286.49 1395.23 1288.39 Q1393.63 1290.28 1393.63 1293.54 Q1393.63 1296.82 1395.23 1298.7 Q1396.85 1300.59 1399.6 1300.59 Z" fill="#ff0000" fill-rule="nonzero" fill-opacity="1" /><path clip-path="url(#clip540)" d="M1983.54 1714.65 L2390.99 1714.65 L2390.99 1207.87 L1983.54 1207.87  Z" fill="#ffffff" fill-rule="evenodd" fill-opacity="1"/>
<defs>
  <clipPath id="clip5421">
    <rect x="1983" y="1207" width="408" height="508"/>
  </clipPath>
</defs>
<polyline clip-path="url(#clip5421)" style="stroke:#009af9; stroke-linecap:round; stroke-linejoin:round; stroke-width:4; stroke-opacity:1; fill:none" points="1995.07,1444.09 2007.47,1477.33 2019.87,1388.9 2032.27,1513.9 2044.67,1418.25 2057.07,1429.06 2069.47,1518.4 2081.87,1339.65 2094.27,1585.94 2106.67,1326.39 2119.07,1481.55 2131.47,1556.85 2143.87,1222.22 2156.27,1700.3 2168.67,1274.86 2181.07,1503.29 2193.47,1492.41 2205.87,1349.63 2218.26,1546 2230.66,1411.17 2243.06,1398.1 2255.46,1585.37 2267.86,1268.39 2280.26,1638.5 2292.66,1286.75 2305.06,1540.75 2317.46,1466.25 2329.86,1336.54 2342.26,1587.17 2354.66,1364.16 2367.06,1463.25 2379.46,1460.36 "/>
<polyline clip-path="url(#clip5421)" style="stroke:#000000; stroke-linecap:round; stroke-linejoin:round; stroke-width:4; stroke-opacity:1; fill:none" points="1576.09,1448.88 2798.44,1448.88 "/>
<path clip-path="url(#clip540)" d="M1973.61 1316.65 Q1976.54 1317.28 1978.19 1319.26 Q1979.85 1321.25 1979.85 1324.16 Q1979.85 1328.64 1976.77 1331.09 Q1973.69 1333.54 1968.02 1333.54 Q1966.11 1333.54 1964.09 1333.16 Q1962.08 1332.79 1959.94 1332.04 L1959.94 1328.09 Q1961.64 1329.09 1963.66 1329.59 Q1965.69 1330.1 1967.9 1330.1 Q1971.74 1330.1 1973.75 1328.58 Q1975.78 1327.06 1975.78 1324.16 Q1975.78 1321.49 1973.89 1319.99 Q1972.03 1318.47 1968.69 1318.47 L1965.16 1318.47 L1965.16 1315.11 L1968.85 1315.11 Q1971.87 1315.11 1973.47 1313.91 Q1975.07 1312.7 1975.07 1310.43 Q1975.07 1308.1 1973.41 1306.87 Q1971.76 1305.61 1968.69 1305.61 Q1967 1305.61 1965.08 1305.98 Q1963.16 1306.34 1960.85 1307.11 L1960.85 1303.46 Q1963.18 1302.82 1965.2 1302.49 Q1967.25 1302.17 1969.05 1302.17 Q1973.71 1302.17 1976.42 1304.29 Q1979.14 1306.4 1979.14 1310.01 Q1979.14 1312.52 1977.7 1314.26 Q1976.26 1315.98 1973.61 1316.65 Z" fill="#ff0000" fill-rule="nonzero" fill-opacity="1" /><path clip-path="url(#clip540)" d="M1991.13 1329.51 L2005.41 1329.51 L2005.41 1332.95 L1986.21 1332.95 L1986.21 1329.51 Q1988.54 1327.1 1992.55 1323.05 Q1996.58 1318.98 1997.61 1317.8 Q1999.57 1315.6 2000.34 1314.08 Q2001.13 1312.54 2001.13 1311.06 Q2001.13 1308.65 1999.43 1307.13 Q1997.75 1305.61 1995.04 1305.61 Q1993.11 1305.61 1990.97 1306.28 Q1988.84 1306.95 1986.41 1308.3 L1986.41 1304.17 Q1988.88 1303.18 1991.03 1302.67 Q1993.17 1302.17 1994.96 1302.17 Q1999.66 1302.17 2002.45 1304.52 Q2005.25 1306.87 2005.25 1310.8 Q2005.25 1312.66 2004.54 1314.34 Q2003.85 1316 2002 1318.27 Q2001.5 1318.86 1998.78 1321.67 Q1996.07 1324.47 1991.13 1329.51 Z" fill="#ff0000" fill-rule="nonzero" fill-opacity="1" /><path clip-path="url(#clip540)" d="M2577.92 1714.65 L2985.37 1714.65 L2985.37 1207.87 L2577.92 1207.87  Z" fill="#ffffff" fill-rule="evenodd" fill-opacity="1"/>
<defs>
  <clipPath id="clip5422">
    <rect x="2577" y="1207" width="408" height="508"/>
  </clipPath>
</defs>
<polyline clip-path="url(#clip5422)" style="stroke:#009af9; stroke-linecap:round; stroke-linejoin:round; stroke-width:4; stroke-opacity:1; fill:none" points="2589.45,1427.57 2600.13,1363.9 2610.8,1389.55 2621.48,1468.87 2632.16,1338.7 2642.84,1377.17 2653.51,1504.22 2664.19,1305.86 2674.87,1402.57 2685.55,1502.9 2696.22,1258.32 2706.9,1496.59 2717.58,1407.77 2728.26,1299.41 2738.93,1543.33 2749.61,1306.66 2760.29,1370.59 2770.97,1527.24 2781.64,1332.64 2792.32,1281.95 2803,1656.41 2813.68,1226.71 2824.35,1340.61 2835.03,1593.02 2845.71,1327.22 2856.39,1222.22 2867.06,1700.3 2877.74,1224.8 2888.42,1360.61 2899.1,1539.41 2909.77,1319.92 2920.45,1369.46 2931.13,1489.77 2941.81,1334.43 2952.48,1419.93 2963.16,1408.8 2973.84,1389.07 "/>
<polyline clip-path="url(#clip5422)" style="stroke:#000000; stroke-linecap:round; stroke-linejoin:round; stroke-width:4; stroke-opacity:1; fill:none" points="2170.47,1400.48 3392.82,1400.48 "/>
<path clip-path="url(#clip540)" d="M2569.4 1316.65 Q2572.34 1317.28 2573.98 1319.26 Q2575.64 1321.25 2575.64 1324.16 Q2575.64 1328.64 2572.56 1331.09 Q2569.49 1333.54 2563.81 1333.54 Q2561.91 1333.54 2559.88 1333.16 Q2557.88 1332.79 2555.73 1332.04 L2555.73 1328.09 Q2557.43 1329.09 2559.46 1329.59 Q2561.48 1330.1 2563.69 1330.1 Q2567.54 1330.1 2569.55 1328.58 Q2571.57 1327.06 2571.57 1324.16 Q2571.57 1321.49 2569.69 1319.99 Q2567.82 1318.47 2564.48 1318.47 L2560.96 1318.47 L2560.96 1315.11 L2564.64 1315.11 Q2567.66 1315.11 2569.26 1313.91 Q2570.86 1312.7 2570.86 1310.43 Q2570.86 1308.1 2569.2 1306.87 Q2567.56 1305.61 2564.48 1305.61 Q2562.8 1305.61 2560.88 1305.98 Q2558.95 1306.34 2556.64 1307.11 L2556.64 1303.46 Q2558.97 1302.82 2561 1302.49 Q2563.04 1302.17 2564.85 1302.17 Q2569.51 1302.17 2572.22 1304.29 Q2574.93 1306.4 2574.93 1310.01 Q2574.93 1312.52 2573.5 1314.26 Q2572.06 1315.98 2569.4 1316.65 Z" fill="#ff0000" fill-rule="nonzero" fill-opacity="1" /><path clip-path="url(#clip540)" d="M2582.37 1302.71 L2601.81 1302.71 L2601.81 1304.46 L2590.83 1332.95 L2586.56 1332.95 L2596.89 1306.16 L2582.37 1306.16 L2582.37 1302.71 Z" fill="#ff0000" fill-rule="nonzero" fill-opacity="1" /><path clip-path="url(#clip540)" d="M3172.3 1714.65 L3579.75 1714.65 L3579.75 1207.87 L3172.3 1207.87  Z" fill="#ffffff" fill-rule="evenodd" fill-opacity="1"/>
<defs>
  <clipPath id="clip5423">
    <rect x="3172" y="1207" width="408" height="508"/>
  </clipPath>
</defs>
<polyline clip-path="url(#clip5423)" style="stroke:#009af9; stroke-linecap:round; stroke-linejoin:round; stroke-width:4; stroke-opacity:1; fill:none" points="3183.83,1425.18 3197.56,1453.01 3211.28,1519.31 3225.01,1289.88 3238.74,1574.28 3252.47,1466.91 3266.2,1305.03 3279.92,1561.71 3293.65,1444.75 3307.38,1393.57 3321.11,1444.74 3334.84,1522.06 3348.57,1335.66 3362.29,1552.55 3376.02,1324.64 3389.75,1611.27 3403.48,1254 3417.21,1602.3 3430.93,1381.64 3444.66,1419.28 3458.39,1486.16 3472.12,1500.38 3485.85,1266.27 3499.58,1700.3 3513.3,1222.22 3527.03,1566.09 3540.76,1426.39 3554.49,1424.8 3568.22,1460.6 "/>
<polyline clip-path="url(#clip5423)" style="stroke:#000000; stroke-linecap:round; stroke-linejoin:round; stroke-width:4; stroke-opacity:1; fill:none" points="2764.84,1446.28 3987.2,1446.28 "/>
<path clip-path="url(#clip540)" d="M3151.61 1329.51 L3165.89 1329.51 L3165.89 1332.95 L3146.69 1332.95 L3146.69 1329.51 Q3149.01 1327.1 3153.02 1323.05 Q3157.06 1318.98 3158.09 1317.8 Q3160.05 1315.6 3160.82 1314.08 Q3161.61 1312.54 3161.61 1311.06 Q3161.61 1308.65 3159.91 1307.13 Q3158.23 1305.61 3155.52 1305.61 Q3153.59 1305.61 3151.44 1306.28 Q3149.32 1306.95 3146.89 1308.3 L3146.89 1304.17 Q3149.36 1303.18 3151.51 1302.67 Q3153.65 1302.17 3155.44 1302.17 Q3160.13 1302.17 3162.93 1304.52 Q3165.72 1306.87 3165.72 1310.8 Q3165.72 1312.66 3165.02 1314.34 Q3164.33 1316 3162.48 1318.27 Q3161.98 1318.86 3159.26 1321.67 Q3156.55 1324.47 3151.61 1329.51 Z" fill="#ff0000" fill-rule="nonzero" fill-opacity="1" /><path clip-path="url(#clip540)" d="M3174.6 1332.33 L3174.6 1328.6 Q3176.14 1329.33 3177.72 1329.71 Q3179.29 1330.1 3180.81 1330.1 Q3184.86 1330.1 3186.99 1327.38 Q3189.14 1324.65 3189.44 1319.1 Q3188.27 1320.84 3186.46 1321.77 Q3184.66 1322.71 3182.47 1322.71 Q3177.94 1322.71 3175.28 1319.97 Q3172.65 1317.22 3172.65 1312.46 Q3172.65 1307.8 3175.41 1304.98 Q3178.16 1302.17 3182.74 1302.17 Q3187.98 1302.17 3190.74 1306.2 Q3193.51 1310.21 3193.51 1317.86 Q3193.51 1325.01 3190.11 1329.29 Q3186.73 1333.54 3181 1333.54 Q3179.46 1333.54 3177.88 1333.24 Q3176.3 1332.93 3174.6 1332.33 M3182.74 1319.51 Q3185.49 1319.51 3187.09 1317.62 Q3188.71 1315.74 3188.71 1312.46 Q3188.71 1309.2 3187.09 1307.31 Q3185.49 1305.41 3182.74 1305.41 Q3179.98 1305.41 3178.36 1307.31 Q3176.76 1309.2 3176.76 1312.46 Q3176.76 1315.74 3178.36 1317.62 Q3179.98 1319.51 3182.74 1319.51 Z" fill="#ff0000" fill-rule="nonzero" fill-opacity="1" /><path clip-path="url(#clip540)" d="M3766.67 1714.65 L4174.13 1714.65 L4174.13 1207.87 L3766.67 1207.87  Z" fill="#ffffff" fill-rule="evenodd" fill-opacity="1"/>
<defs>
  <clipPath id="clip5424">
    <rect x="3766" y="1207" width="408" height="508"/>
  </clipPath>
</defs>
<polyline clip-path="url(#clip5424)" style="stroke:#009af9; stroke-linecap:round; stroke-linejoin:round; stroke-width:4; stroke-opacity:1; fill:none" points="3778.21,1520.04 3788.59,1533.35 3798.98,1466.12 3809.37,1496.64 3819.76,1624.13 3830.15,1461.23 3840.54,1424.07 3850.93,1598.9 3861.32,1545.1 3871.71,1517.87 3882.09,1333.98 3892.48,1700.3 3902.87,1533.89 3913.26,1405.9 3923.65,1527.66 3934.04,1489.67 3944.43,1655.38 3954.82,1456.06 3965.21,1331.65 3975.59,1678.05 3985.98,1655.44 3996.37,1222.22 4006.76,1631.45 4017.15,1583.11 4027.54,1444.2 4037.93,1568.01 4048.32,1398.28 4058.71,1612.29 4069.09,1508.3 4079.48,1544.24 4089.87,1371.45 4100.26,1612.57 4110.65,1591.26 4121.04,1390.93 4131.43,1512.46 4141.82,1578.36 4152.21,1509.4 4162.59,1485.71 "/>
<polyline clip-path="url(#clip5424)" style="stroke:#000000; stroke-linecap:round; stroke-linejoin:round; stroke-width:4; stroke-opacity:1; fill:none" points="3359.22,1513.81 4581.58,1513.81 "/>
<path clip-path="url(#clip540)" d="M3758.09 1316.65 Q3761.03 1317.28 3762.67 1319.26 Q3764.33 1321.25 3764.33 1324.16 Q3764.33 1328.64 3761.25 1331.09 Q3758.18 1333.54 3752.5 1333.54 Q3750.6 1333.54 3748.57 1333.16 Q3746.57 1332.79 3744.42 1332.04 L3744.42 1328.09 Q3746.12 1329.09 3748.15 1329.59 Q3750.17 1330.1 3752.38 1330.1 Q3756.23 1330.1 3758.24 1328.58 Q3760.26 1327.06 3760.26 1324.16 Q3760.26 1321.49 3758.38 1319.99 Q3756.51 1318.47 3753.17 1318.47 L3749.65 1318.47 L3749.65 1315.11 L3753.33 1315.11 Q3756.35 1315.11 3757.95 1313.91 Q3759.55 1312.7 3759.55 1310.43 Q3759.55 1308.1 3757.89 1306.87 Q3756.25 1305.61 3753.17 1305.61 Q3751.49 1305.61 3749.57 1305.98 Q3747.64 1306.34 3745.33 1307.11 L3745.33 1303.46 Q3747.66 1302.82 3749.69 1302.49 Q3751.73 1302.17 3753.54 1302.17 Q3758.2 1302.17 3760.91 1304.29 Q3763.62 1306.4 3763.62 1310.01 Q3763.62 1312.52 3762.19 1314.26 Q3760.75 1315.98 3758.09 1316.65 Z" fill="#ff0000" fill-rule="nonzero" fill-opacity="1" /><path clip-path="url(#clip540)" d="M3780.84 1318.59 Q3777.92 1318.59 3776.24 1320.15 Q3774.58 1321.71 3774.58 1324.45 Q3774.58 1327.18 3776.24 1328.74 Q3777.92 1330.3 3780.84 1330.3 Q3783.76 1330.3 3785.44 1328.74 Q3787.12 1327.16 3787.12 1324.45 Q3787.12 1321.71 3785.44 1320.15 Q3783.78 1318.59 3780.84 1318.59 M3776.75 1316.85 Q3774.12 1316.2 3772.64 1314.4 Q3771.18 1312.6 3771.18 1310.01 Q3771.18 1306.38 3773.75 1304.27 Q3776.34 1302.17 3780.84 1302.17 Q3785.36 1302.17 3787.93 1304.27 Q3790.5 1306.38 3790.5 1310.01 Q3790.5 1312.6 3789.02 1314.4 Q3787.56 1316.2 3784.95 1316.85 Q3787.91 1317.54 3789.55 1319.55 Q3791.21 1321.55 3791.21 1324.45 Q3791.21 1328.84 3788.52 1331.19 Q3785.84 1333.54 3780.84 1333.54 Q3775.84 1333.54 3773.14 1331.19 Q3770.47 1328.84 3770.47 1324.45 Q3770.47 1321.55 3772.13 1319.55 Q3773.79 1317.54 3776.75 1316.85 M3775.25 1310.39 Q3775.25 1312.74 3776.71 1314.06 Q3778.19 1315.37 3780.84 1315.37 Q3783.47 1315.37 3784.95 1314.06 Q3786.45 1312.74 3786.45 1310.39 Q3786.45 1308.04 3784.95 1306.72 Q3783.47 1305.41 3780.84 1305.41 Q3778.19 1305.41 3776.71 1306.72 Q3775.25 1308.04 3775.25 1310.39 Z" fill="#ff0000" fill-rule="nonzero" fill-opacity="1" /><path clip-path="url(#clip540)" d="M4361.05 1714.65 L4768.5 1714.65 L4768.5 1207.87 L4361.05 1207.87  Z" fill="#ffffff" fill-rule="evenodd" fill-opacity="1"/>
<defs>
  <clipPath id="clip5425">
    <rect x="4361" y="1207" width="408" height="508"/>
  </clipPath>
</defs>
<polyline clip-path="url(#clip5425)" style="stroke:#009af9; stroke-linecap:round; stroke-linejoin:round; stroke-width:4; stroke-opacity:1; fill:none" points="4372.58,1479.16 4381.13,1471.84 4389.67,1407.69 4398.21,1415.08 4406.75,1526.29 4415.29,1541.07 4423.84,1370.28 4432.38,1334.35 4440.92,1523.23 4449.46,1625.69 4458,1441.52 4466.55,1244.27 4475.09,1404.29 4483.63,1695.06 4492.17,1565.92 4500.71,1236.89 4509.26,1306.44 4517.8,1621.81 4526.34,1620.47 4534.88,1392.49 4543.42,1289.27 4551.96,1418.33 4560.51,1579.99 4569.05,1588.24 4577.59,1385.53 4586.13,1276.37 4594.67,1433.02 4603.22,1645.71 4611.76,1578.18 4620.3,1271.71 4628.84,1248.9 4637.38,1597.66 4645.93,1700.3 4654.47,1362.27 4663.01,1222.22 4671.55,1474.48 4680.09,1668.19 4688.64,1484.78 4697.18,1291 4705.72,1391.6 4714.26,1570.5 4722.8,1513.29 4731.35,1394.52 4739.89,1421 4748.43,1473.5 4756.97,1468.96 "/>
<polyline clip-path="url(#clip5425)" style="stroke:#000000; stroke-linecap:round; stroke-linejoin:round; stroke-width:4; stroke-opacity:1; fill:none" points="3953.6,1455.35 5175.96,1455.35 "/>
<path clip-path="url(#clip540)" d="M4353.62 1306.28 L4343.29 1322.42 L4353.62 1322.42 L4353.62 1306.28 M4352.55 1302.71 L4357.69 1302.71 L4357.69 1322.42 L4362.01 1322.42 L4362.01 1325.82 L4357.69 1325.82 L4357.69 1332.95 L4353.62 1332.95 L4353.62 1325.82 L4339.97 1325.82 L4339.97 1321.87 L4352.55 1302.71 Z" fill="#ff0000" fill-rule="nonzero" fill-opacity="1" /><path clip-path="url(#clip540)" d="M4378.03 1316.2 Q4375.27 1316.2 4373.65 1318.09 Q4372.05 1319.97 4372.05 1323.25 Q4372.05 1326.51 4373.65 1328.42 Q4375.27 1330.3 4378.03 1330.3 Q4380.78 1330.3 4382.38 1328.42 Q4384 1326.51 4384 1323.25 Q4384 1319.97 4382.38 1318.09 Q4380.78 1316.2 4378.03 1316.2 M4386.15 1303.38 L4386.15 1307.11 Q4384.61 1306.38 4383.03 1306 Q4381.47 1305.61 4379.93 1305.61 Q4375.88 1305.61 4373.73 1308.34 Q4371.61 1311.08 4371.3 1316.61 Q4372.5 1314.85 4374.3 1313.91 Q4376.1 1312.96 4378.27 1312.96 Q4382.83 1312.96 4385.46 1315.74 Q4388.11 1318.49 4388.11 1323.25 Q4388.11 1327.91 4385.36 1330.73 Q4382.6 1333.54 4378.03 1333.54 Q4372.78 1333.54 4370.01 1329.53 Q4367.23 1325.5 4367.23 1317.86 Q4367.23 1310.69 4370.63 1306.44 Q4374.04 1302.17 4379.77 1302.17 Q4381.31 1302.17 4382.87 1302.47 Q4384.45 1302.77 4386.15 1303.38 Z" fill="#ff0000" fill-rule="nonzero" fill-opacity="1" /><path clip-path="url(#clip540)" d="M201.54 2302.84 L608.992 2302.84 L608.992 1796.06 L201.54 1796.06  Z" fill="#ffffff" fill-rule="evenodd" fill-opacity="1"/>
<defs>
  <clipPath id="clip5426">
    <rect x="201" y="1796" width="408" height="508"/>
  </clipPath>
</defs>
<polyline clip-path="url(#clip5426)" style="stroke:#009af9; stroke-linecap:round; stroke-linejoin:round; stroke-width:4; stroke-opacity:1; fill:none" points="213.071,2106.09 221.25,2137.32 229.428,2152.28 237.607,2171.84 245.785,2187.17 253.964,2208.18 262.142,2228.94 270.321,2246.91 278.499,2264.43 286.678,2278.9 294.856,2287.29 303.035,2288.49 311.213,2272.27 319.392,2242.16 327.57,2202.01 335.749,2164.33 343.927,2110.1 352.106,2052.62 360.284,1996.51 368.463,1949.3 376.641,1902.88 384.82,1862.13 392.998,1830.38 401.177,1814.7 409.355,1810.41 417.534,1820.44 425.712,1840.16 433.891,1871.61 442.069,1911.28 450.247,1958.5 458.426,2009.63 466.604,2064.61 474.783,2113.59 482.961,2160.94 491.14,2200.16 499.318,2235.43 507.497,2257.92 515.675,2271.41 523.854,2272.26 532.032,2267.52 540.211,2254.88 548.389,2237.45 556.568,2216.53 564.746,2191.32 572.925,2170.55 581.103,2150.47 589.282,2127.31 597.46,2116.63 "/>
<polyline clip-path="url(#clip5426)" style="stroke:#000000; stroke-linecap:round; stroke-linejoin:round; stroke-width:4; stroke-opacity:1; fill:none" points="-205.912,2108.9 1016.44,2108.9 "/>
<path clip-path="url(#clip540)" d="M194.583 1894.47 L184.254 1910.61 L194.583 1910.61 L194.583 1894.47 M193.51 1890.9 L198.655 1890.9 L198.655 1910.61 L202.969 1910.61 L202.969 1914.01 L198.655 1914.01 L198.655 1921.14 L194.583 1921.14 L194.583 1914.01 L180.932 1914.01 L180.932 1910.06 L193.51 1890.9 Z" fill="#ff0000" fill-rule="nonzero" fill-opacity="1" /><path clip-path="url(#clip540)" d="M218.484 1906.78 Q215.567 1906.78 213.886 1908.34 Q212.225 1909.9 212.225 1912.64 Q212.225 1915.37 213.886 1916.93 Q215.567 1918.49 218.484 1918.49 Q221.4 1918.49 223.082 1916.93 Q224.763 1915.35 224.763 1912.64 Q224.763 1909.9 223.082 1908.34 Q221.421 1906.78 218.484 1906.78 M214.392 1905.04 Q211.759 1904.39 210.281 1902.59 Q208.822 1900.79 208.822 1898.19 Q208.822 1894.57 211.395 1892.46 Q213.987 1890.36 218.484 1890.36 Q223.001 1890.36 225.573 1892.46 Q228.145 1894.57 228.145 1898.19 Q228.145 1900.79 226.667 1902.59 Q225.208 1904.39 222.595 1905.04 Q225.553 1905.73 227.193 1907.73 Q228.854 1909.74 228.854 1912.64 Q228.854 1917.03 226.16 1919.38 Q223.487 1921.73 218.484 1921.73 Q213.481 1921.73 210.787 1919.38 Q208.113 1917.03 208.113 1912.64 Q208.113 1909.74 209.774 1907.73 Q211.435 1905.73 214.392 1905.04 M212.894 1898.58 Q212.894 1900.93 214.352 1902.25 Q215.83 1903.56 218.484 1903.56 Q221.117 1903.56 222.595 1902.25 Q224.094 1900.93 224.094 1898.58 Q224.094 1896.23 222.595 1894.91 Q221.117 1893.6 218.484 1893.6 Q215.83 1893.6 214.352 1894.91 Q212.894 1896.23 212.894 1898.58 Z" fill="#ff0000" fill-rule="nonzero" fill-opacity="1" /><path clip-path="url(#clip540)" d="M795.918 2302.84 L1203.37 2302.84 L1203.37 1796.06 L795.918 1796.06  Z" fill="#ffffff" fill-rule="evenodd" fill-opacity="1"/>
<defs>
  <clipPath id="clip5427">
    <rect x="795" y="1796" width="408" height="508"/>
  </clipPath>
</defs>
<polyline clip-path="url(#clip5427)" style="stroke:#009af9; stroke-linecap:round; stroke-linejoin:round; stroke-width:4; stroke-opacity:1; fill:none" points="807.45,2082.12 818.127,2084.59 828.804,2001.23 839.482,2056.41 850.159,2176.79 860.837,2014.22 871.514,1933.07 882.192,2186.05 892.869,2168.08 903.547,1898.94 914.224,2000.79 924.902,2257.25 935.579,2062.72 946.257,1876.36 956.934,2109.42 967.611,2232.59 978.289,1968.67 988.966,1940.39 999.644,2201.69 1010.32,2122.26 1021,1899.38 1031.68,2088.72 1042.35,2230.32 1053.03,1943.25 1063.71,1934.62 1074.39,2288.49 1085.06,2077.13 1095.74,1810.41 1106.42,2198.98 1117.1,2225.76 1127.77,1869.05 1138.45,2021.35 1149.13,2228.31 1159.81,2029.99 1170.48,1980.56 1181.16,2106.64 1191.84,2079.54 "/>
<polyline clip-path="url(#clip5427)" style="stroke:#000000; stroke-linecap:round; stroke-linejoin:round; stroke-width:4; stroke-opacity:1; fill:none" points="388.466,2063.98 1610.82,2063.98 "/>
<path clip-path="url(#clip540)" d="M787.404 1904.84 Q790.341 1905.47 791.982 1907.45 Q793.643 1909.44 793.643 1912.35 Q793.643 1916.83 790.564 1919.28 Q787.485 1921.73 781.814 1921.73 Q779.91 1921.73 777.885 1921.35 Q775.88 1920.98 773.733 1920.23 L773.733 1916.28 Q775.434 1917.27 777.459 1917.78 Q779.485 1918.29 781.693 1918.29 Q785.541 1918.29 787.546 1916.77 Q789.572 1915.25 789.572 1912.35 Q789.572 1909.68 787.688 1908.18 Q785.825 1906.66 782.483 1906.66 L778.958 1906.66 L778.958 1903.3 L782.645 1903.3 Q785.662 1903.3 787.263 1902.1 Q788.863 1900.89 788.863 1898.62 Q788.863 1896.29 787.202 1895.06 Q785.561 1893.8 782.483 1893.8 Q780.801 1893.8 778.877 1894.16 Q776.953 1894.53 774.644 1895.3 L774.644 1891.65 Q776.973 1891 778.999 1890.68 Q781.044 1890.36 782.847 1890.36 Q787.506 1890.36 790.22 1892.48 Q792.934 1894.59 792.934 1898.19 Q792.934 1900.71 791.496 1902.45 Q790.058 1904.17 787.404 1904.84 Z" fill="#ff0000" fill-rule="nonzero" fill-opacity="1" /><path clip-path="url(#clip540)" d="M800.367 1890.9 L819.812 1890.9 L819.812 1892.65 L808.834 1921.14 L804.56 1921.14 L814.89 1894.35 L800.367 1894.35 L800.367 1890.9 Z" fill="#ff0000" fill-rule="nonzero" fill-opacity="1" /><path clip-path="url(#clip540)" d="M1389.16 2302.84 L1796.61 2302.84 L1796.61 1796.06 L1389.16 1796.06  Z" fill="#ffffff" fill-rule="evenodd" fill-opacity="1"/>
<defs>
  <clipPath id="clip5428">
    <rect x="1389" y="1796" width="408" height="508"/>
  </clipPath>
</defs>
<polyline clip-path="url(#clip5428)" style="stroke:#009af9; stroke-linecap:round; stroke-linejoin:round; stroke-width:4; stroke-opacity:1; fill:none" points="1400.69,2059.08 1413.51,2080.86 1426.32,2146.64 1439.13,2230.46 1451.95,2288.49 1464.76,2284.38 1477.57,2216.24 1490.38,2086.31 1503.2,1950.39 1516.01,1845.46 1528.82,1810.41 1541.64,1851.37 1554.45,1957.63 1567.26,2086.57 1580.07,2187.42 1592.89,2231.82 1605.7,2206.67 1618.51,2120.66 1631.33,2010.41 1644.14,1919.77 1656.95,1890.2 1669.77,1935.36 1682.58,2036.8 1695.39,2156.23 1708.2,2245.71 1721.02,2275.34 1733.83,2253.19 1746.64,2189.26 1759.46,2111.65 1772.27,2063.28 1785.08,2078.11 "/>
<polyline clip-path="url(#clip5428)" style="stroke:#000000; stroke-linecap:round; stroke-linejoin:round; stroke-width:4; stroke-opacity:1; fill:none" points="981.71,2082.41 2204.07,2082.41 "/>
<path clip-path="url(#clip540)" d="M1378.65 1904.84 Q1381.59 1905.47 1383.23 1907.45 Q1384.89 1909.44 1384.89 1912.35 Q1384.89 1916.83 1381.81 1919.28 Q1378.74 1921.73 1373.06 1921.73 Q1371.16 1921.73 1369.13 1921.35 Q1367.13 1920.98 1364.98 1920.23 L1364.98 1916.28 Q1366.68 1917.27 1368.71 1917.78 Q1370.73 1918.29 1372.94 1918.29 Q1376.79 1918.29 1378.8 1916.77 Q1380.82 1915.25 1380.82 1912.35 Q1380.82 1909.68 1378.94 1908.18 Q1377.07 1906.66 1373.73 1906.66 L1370.21 1906.66 L1370.21 1903.3 L1373.89 1903.3 Q1376.91 1903.3 1378.51 1902.1 Q1380.11 1900.89 1380.11 1898.62 Q1380.11 1896.29 1378.45 1895.06 Q1376.81 1893.8 1373.73 1893.8 Q1372.05 1893.8 1370.13 1894.16 Q1368.2 1894.53 1365.89 1895.3 L1365.89 1891.65 Q1368.22 1891 1370.25 1890.68 Q1372.29 1890.36 1374.1 1890.36 Q1378.76 1890.36 1381.47 1892.48 Q1384.18 1894.59 1384.18 1898.19 Q1384.18 1900.71 1382.75 1902.45 Q1381.31 1904.17 1378.65 1904.84 Z" fill="#ff0000" fill-rule="nonzero" fill-opacity="1" /><path clip-path="url(#clip540)" d="M1393.36 1917.7 L1400.04 1917.7 L1400.04 1894.63 L1392.77 1896.09 L1392.77 1892.36 L1400 1890.9 L1404.09 1890.9 L1404.09 1917.7 L1410.78 1917.7 L1410.78 1921.14 L1393.36 1921.14 L1393.36 1917.7 Z" fill="#ff0000" fill-rule="nonzero" fill-opacity="1" /><path clip-path="url(#clip540)" d="M1983.54 2302.84 L2390.99 2302.84 L2390.99 1796.06 L1983.54 1796.06  Z" fill="#ffffff" fill-rule="evenodd" fill-opacity="1"/>
<defs>
  <clipPath id="clip5429">
    <rect x="1983" y="1796" width="408" height="508"/>
  </clipPath>
</defs>
<polyline clip-path="url(#clip5429)" style="stroke:#009af9; stroke-linecap:round; stroke-linejoin:round; stroke-width:4; stroke-opacity:1; fill:none" points="1995.07,2079.66 2007.47,2104.31 2019.87,2129.11 2032.27,2128.33 2044.67,2099.32 2057.07,2050.8 2069.47,1997.05 2081.87,1971.93 2094.27,1995.81 2106.67,2058.78 2119.07,2116.8 2131.47,2144.21 2143.87,2116.35 2156.27,2038.46 2168.67,1914.64 2181.07,1810.41 2193.47,1828.94 2205.87,1986.4 2218.26,2181.81 2230.66,2288.49 2243.06,2253.06 2255.46,2132.96 2267.86,2008.08 2280.26,1946.24 2292.66,1962.85 2305.06,2057.43 2317.46,2173.44 2329.86,2236.86 2342.26,2208.22 2354.66,2114.59 2367.06,2038.46 2379.46,2017.64 "/>
<polyline clip-path="url(#clip5429)" style="stroke:#000000; stroke-linecap:round; stroke-linejoin:round; stroke-width:4; stroke-opacity:1; fill:none" points="1576.09,2066.09 2798.44,2066.09 "/>
<path clip-path="url(#clip540)" d="M1973.61 1904.84 Q1976.54 1905.47 1978.19 1907.45 Q1979.85 1909.44 1979.85 1912.35 Q1979.85 1916.83 1976.77 1919.28 Q1973.69 1921.73 1968.02 1921.73 Q1966.11 1921.73 1964.09 1921.35 Q1962.08 1920.98 1959.94 1920.23 L1959.94 1916.28 Q1961.64 1917.27 1963.66 1917.78 Q1965.69 1918.29 1967.9 1918.29 Q1971.74 1918.29 1973.75 1916.77 Q1975.78 1915.25 1975.78 1912.35 Q1975.78 1909.68 1973.89 1908.18 Q1972.03 1906.66 1968.69 1906.66 L1965.16 1906.66 L1965.16 1903.3 L1968.85 1903.3 Q1971.87 1903.3 1973.47 1902.1 Q1975.07 1900.89 1975.07 1898.62 Q1975.07 1896.29 1973.41 1895.06 Q1971.76 1893.8 1968.69 1893.8 Q1967 1893.8 1965.08 1894.16 Q1963.16 1894.53 1960.85 1895.3 L1960.85 1891.65 Q1963.18 1891 1965.2 1890.68 Q1967.25 1890.36 1969.05 1890.36 Q1973.71 1890.36 1976.42 1892.48 Q1979.14 1894.59 1979.14 1898.19 Q1979.14 1900.71 1977.7 1902.45 Q1976.26 1904.17 1973.61 1904.84 Z" fill="#ff0000" fill-rule="nonzero" fill-opacity="1" /><path clip-path="url(#clip540)" d="M1991.13 1917.7 L2005.41 1917.7 L2005.41 1921.14 L1986.21 1921.14 L1986.21 1917.7 Q1988.54 1915.29 1992.55 1911.24 Q1996.58 1907.17 1997.61 1905.99 Q1999.57 1903.79 2000.34 1902.27 Q2001.13 1900.73 2001.13 1899.25 Q2001.13 1896.84 1999.43 1895.32 Q1997.75 1893.8 1995.04 1893.8 Q1993.11 1893.8 1990.97 1894.47 Q1988.84 1895.14 1986.41 1896.49 L1986.41 1892.36 Q1988.88 1891.37 1991.03 1890.86 Q1993.17 1890.36 1994.96 1890.36 Q1999.66 1890.36 2002.45 1892.71 Q2005.25 1895.06 2005.25 1898.98 Q2005.25 1900.85 2004.54 1902.53 Q2003.85 1904.19 2002 1906.46 Q2001.5 1907.05 1998.78 1909.86 Q1996.07 1912.66 1991.13 1917.7 Z" fill="#ff0000" fill-rule="nonzero" fill-opacity="1" /><path clip-path="url(#clip540)" d="M2577.92 2302.84 L2985.37 2302.84 L2985.37 1796.06 L2577.92 1796.06  Z" fill="#ffffff" fill-rule="evenodd" fill-opacity="1"/>
<defs>
  <clipPath id="clip5430">
    <rect x="2577" y="1796" width="408" height="508"/>
  </clipPath>
</defs>
<polyline clip-path="url(#clip5430)" style="stroke:#009af9; stroke-linecap:round; stroke-linejoin:round; stroke-width:4; stroke-opacity:1; fill:none" points="2589.45,2078.08 2599.06,2081.19 2608.67,2047.8 2618.28,1976.7 2627.89,1980.21 2637.5,2109.73 2647.11,2198.69 2656.72,2102.57 2666.33,1966.83 2675.94,1954.52 2685.55,1990.88 2695.16,2004.67 2704.77,2130.36 2714.38,2276.91 2723.99,2142.62 2733.6,1872.7 2743.2,1859 2752.81,2034.86 2762.42,2126.05 2772.03,2140.11 2781.64,2168.98 2791.25,2128.73 2800.86,1996.72 2810.47,1872.5 2820.08,1884.95 2829.69,2057.99 2839.3,2259.25 2848.91,2288.49 2858.52,2092.62 2868.13,1854.53 2877.74,1810.41 2887.35,1994.87 2896.96,2199.57 2906.57,2240.26 2916.18,2125.49 2925.79,1988.31 2935.4,1944.66 2945.01,1990.24 2954.62,2061.47 2964.23,2101.6 2973.84,2090.62 "/>
<polyline clip-path="url(#clip5430)" style="stroke:#000000; stroke-linecap:round; stroke-linejoin:round; stroke-width:4; stroke-opacity:1; fill:none" points="2170.47,2054.79 3392.82,2054.79 "/>
<path clip-path="url(#clip540)" d="M2570.03 1894.47 L2559.7 1910.61 L2570.03 1910.61 L2570.03 1894.47 M2568.95 1890.9 L2574.1 1890.9 L2574.1 1910.61 L2578.41 1910.61 L2578.41 1914.01 L2574.1 1914.01 L2574.1 1921.14 L2570.03 1921.14 L2570.03 1914.01 L2556.37 1914.01 L2556.37 1910.06 L2568.95 1890.9 Z" fill="#ff0000" fill-rule="nonzero" fill-opacity="1" /><path clip-path="url(#clip540)" d="M2585.89 1917.7 L2592.57 1917.7 L2592.57 1894.63 L2585.3 1896.09 L2585.3 1892.36 L2592.53 1890.9 L2596.62 1890.9 L2596.62 1917.7 L2603.3 1917.7 L2603.3 1921.14 L2585.89 1921.14 L2585.89 1917.7 Z" fill="#ff0000" fill-rule="nonzero" fill-opacity="1" /><path clip-path="url(#clip540)" d="M3172.3 2302.84 L3579.75 2302.84 L3579.75 1796.06 L3172.3 1796.06  Z" fill="#ffffff" fill-rule="evenodd" fill-opacity="1"/>
<defs>
  <clipPath id="clip5431">
    <rect x="3172" y="1796" width="408" height="508"/>
  </clipPath>
</defs>
<polyline clip-path="url(#clip5431)" style="stroke:#009af9; stroke-linecap:round; stroke-linejoin:round; stroke-width:4; stroke-opacity:1; fill:none" points="3183.83,2066.38 3193.2,2089.77 3202.58,2103.54 3211.95,2065.75 3221.33,2002.21 3230.7,2055.34 3240.08,2139.32 3249.45,2136.64 3258.83,2032.83 3268.21,2037.6 3277.58,2064.72 3286.96,1978.72 3296.33,2111.47 3305.71,2288.49 3315.08,2078.45 3324.46,1810.41 3333.83,2082.51 3343.21,2132.91 3352.58,2124.55 3361.96,2120.66 3371.33,2055.19 3380.71,1992.57 3390.08,2062.53 3399.46,2101.99 3408.84,2089.78 3418.21,2072.51 3427.59,2082.3 3436.96,2120.2 3446.34,1990.43 3455.71,1982.62 3465.09,2183.55 3474.46,2153.86 3483.84,2043.06 3493.21,2036.23 3502.59,2028.77 3511.96,2022.81 3521.34,2120.49 3530.71,2153.97 3540.09,2077.47 3549.47,2020.97 3558.84,2043.6 3568.22,2086.93 "/>
<polyline clip-path="url(#clip5431)" style="stroke:#000000; stroke-linecap:round; stroke-linejoin:round; stroke-width:4; stroke-opacity:1; fill:none" points="2764.84,2072.67 3987.2,2072.67 "/>
<path clip-path="url(#clip540)" d="M3164.8 1894.47 L3154.47 1910.61 L3164.8 1910.61 L3164.8 1894.47 M3163.73 1890.9 L3168.87 1890.9 L3168.87 1910.61 L3173.19 1910.61 L3173.19 1914.01 L3168.87 1914.01 L3168.87 1921.14 L3164.8 1921.14 L3164.8 1914.01 L3151.15 1914.01 L3151.15 1910.06 L3163.73 1890.9 Z" fill="#ff0000" fill-rule="nonzero" fill-opacity="1" /><path clip-path="url(#clip540)" d="M3183.48 1917.7 L3197.75 1917.7 L3197.75 1921.14 L3178.55 1921.14 L3178.55 1917.7 Q3180.88 1915.29 3184.89 1911.24 Q3188.92 1907.17 3189.96 1905.99 Q3191.92 1903.79 3192.69 1902.27 Q3193.48 1900.73 3193.48 1899.25 Q3193.48 1896.84 3191.78 1895.32 Q3190.1 1893.8 3187.38 1893.8 Q3185.46 1893.8 3183.31 1894.47 Q3181.19 1895.14 3178.76 1896.49 L3178.76 1892.36 Q3181.23 1891.37 3183.37 1890.86 Q3185.52 1890.36 3187.3 1890.36 Q3192 1890.36 3194.8 1892.71 Q3197.59 1895.06 3197.59 1898.98 Q3197.59 1900.85 3196.88 1902.53 Q3196.2 1904.19 3194.35 1906.46 Q3193.85 1907.05 3191.13 1909.86 Q3188.42 1912.66 3183.48 1917.7 Z" fill="#ff0000" fill-rule="nonzero" fill-opacity="1" /><path clip-path="url(#clip540)" d="M3766.67 2302.84 L4174.13 2302.84 L4174.13 1796.06 L3766.67 1796.06  Z" fill="#ffffff" fill-rule="evenodd" fill-opacity="1"/>
<defs>
  <clipPath id="clip5432">
    <rect x="3766" y="1796" width="408" height="508"/>
  </clipPath>
</defs>
<polyline clip-path="url(#clip5432)" style="stroke:#009af9; stroke-linecap:round; stroke-linejoin:round; stroke-width:4; stroke-opacity:1; fill:none" points="3778.21,2056.42 3789.51,2043.16 3800.82,2082.75 3812.12,1972.36 3823.43,2175.12 3834.73,1914.31 3846.04,2188.49 3857.34,1901.56 3868.65,2207.95 3879.96,1922.42 3891.26,2139.36 3902.57,1966.51 3913.87,2172.79 3925.18,1929.25 3936.48,2101.06 3947.79,2056.83 3959.09,2087.03 3970.4,1924.64 3981.71,2210.66 3993.01,1944.48 4004.32,2109.74 4015.62,1985.8 4026.93,2143.66 4038.23,1929.82 4049.54,2223.74 4060.84,1810.41 4072.15,2288.49 4083.46,1943.71 4094.76,1975.53 4106.07,2217.57 4117.37,1934.06 4128.68,2070.25 4139.98,2085.36 4151.29,2027.89 4162.59,2054.56 "/>
<polyline clip-path="url(#clip5432)" style="stroke:#000000; stroke-linecap:round; stroke-linejoin:round; stroke-width:4; stroke-opacity:1; fill:none" points="3359.22,2051.7 4581.58,2051.7 "/>
<path clip-path="url(#clip540)" d="M3757.57 1904.84 Q3760.51 1905.47 3762.15 1907.45 Q3763.81 1909.44 3763.81 1912.35 Q3763.81 1916.83 3760.73 1919.28 Q3757.65 1921.73 3751.98 1921.73 Q3750.08 1921.73 3748.05 1921.35 Q3746.05 1920.98 3743.9 1920.23 L3743.9 1916.28 Q3745.6 1917.27 3747.63 1917.78 Q3749.65 1918.29 3751.86 1918.29 Q3755.71 1918.29 3757.71 1916.77 Q3759.74 1915.25 3759.74 1912.35 Q3759.74 1909.68 3757.86 1908.18 Q3755.99 1906.66 3752.65 1906.66 L3749.13 1906.66 L3749.13 1903.3 L3752.81 1903.3 Q3755.83 1903.3 3757.43 1902.1 Q3759.03 1900.89 3759.03 1898.62 Q3759.03 1896.29 3757.37 1895.06 Q3755.73 1893.8 3752.65 1893.8 Q3750.97 1893.8 3749.05 1894.16 Q3747.12 1894.53 3744.81 1895.3 L3744.81 1891.65 Q3747.14 1891 3749.17 1890.68 Q3751.21 1890.36 3753.02 1890.36 Q3757.67 1890.36 3760.39 1892.48 Q3763.1 1894.59 3763.1 1898.19 Q3763.1 1900.71 3761.66 1902.45 Q3760.23 1904.17 3757.57 1904.84 Z" fill="#ff0000" fill-rule="nonzero" fill-opacity="1" /><path clip-path="url(#clip540)" d="M3771.61 1890.9 L3787.67 1890.9 L3787.67 1894.35 L3775.36 1894.35 L3775.36 1901.76 Q3776.25 1901.46 3777.14 1901.31 Q3778.03 1901.15 3778.92 1901.15 Q3783.98 1901.15 3786.94 1903.93 Q3789.9 1906.7 3789.9 1911.44 Q3789.9 1916.32 3786.86 1919.04 Q3783.82 1921.73 3778.29 1921.73 Q3776.39 1921.73 3774.4 1921.41 Q3772.44 1921.08 3770.33 1920.43 L3770.33 1916.32 Q3772.16 1917.32 3774.1 1917.8 Q3776.04 1918.29 3778.21 1918.29 Q3781.72 1918.29 3783.76 1916.44 Q3785.81 1914.6 3785.81 1911.44 Q3785.81 1908.28 3783.76 1906.44 Q3781.72 1904.6 3778.21 1904.6 Q3776.57 1904.6 3774.93 1904.96 Q3773.31 1905.32 3771.61 1906.09 L3771.61 1890.9 Z" fill="#ff0000" fill-rule="nonzero" fill-opacity="1" /><path clip-path="url(#clip540)" d="M4361.05 2302.84 L4768.5 2302.84 L4768.5 1796.06 L4361.05 1796.06  Z" fill="#ffffff" fill-rule="evenodd" fill-opacity="1"/>
<defs>
  <clipPath id="clip5433">
    <rect x="4361" y="1796" width="408" height="508"/>
  </clipPath>
</defs>
<polyline clip-path="url(#clip5433)" style="stroke:#009af9; stroke-linecap:round; stroke-linejoin:round; stroke-width:4; stroke-opacity:1; fill:none" points="4372.58,2064.09 4382.7,2061.3 4392.81,2042.69 4402.93,2052.66 4413.05,2142.56 4423.16,2001.28 4433.28,1987.12 4443.39,2170.72 4453.51,2087.39 4463.62,1991.09 4473.74,2000.25 4483.85,2113.58 4493.97,2159.58 4504.08,2023.81 4514.2,1948.43 4524.32,2022.78 4534.43,2288.49 4544.55,2008.53 4554.66,1895.78 4564.78,2118.29 4574.89,2092.49 4585.01,2144.14 4595.12,1996.12 4605.24,1968.44 4615.36,2089.85 4625.47,2174.22 4635.59,2007.77 4645.7,2010.45 4655.82,2138.76 4665.93,1928.35 4676.05,2164.4 4686.16,2183.7 4696.28,1810.41 4706.39,2139.16 4716.51,2164.97 4726.63,1985.37 4736.74,2046.31 4746.86,2068.9 4756.97,2075.64 "/>
<polyline clip-path="url(#clip5433)" style="stroke:#000000; stroke-linecap:round; stroke-linejoin:round; stroke-width:4; stroke-opacity:1; fill:none" points="3953.6,2060.81 5175.96,2060.81 "/>
<path clip-path="url(#clip540)" d="M4352.79 1904.84 Q4355.72 1905.47 4357.36 1907.45 Q4359.02 1909.44 4359.02 1912.35 Q4359.02 1916.83 4355.95 1919.28 Q4352.87 1921.73 4347.2 1921.73 Q4345.29 1921.73 4343.27 1921.35 Q4341.26 1920.98 4339.11 1920.23 L4339.11 1916.28 Q4340.82 1917.27 4342.84 1917.78 Q4344.87 1918.29 4347.07 1918.29 Q4350.92 1918.29 4352.93 1916.77 Q4354.95 1915.25 4354.95 1912.35 Q4354.95 1909.68 4353.07 1908.18 Q4351.21 1906.66 4347.86 1906.66 L4344.34 1906.66 L4344.34 1903.3 L4348.03 1903.3 Q4351.04 1903.3 4352.64 1902.1 Q4354.24 1900.89 4354.24 1898.62 Q4354.24 1896.29 4352.58 1895.06 Q4350.94 1893.8 4347.86 1893.8 Q4346.18 1893.8 4344.26 1894.16 Q4342.34 1894.53 4340.03 1895.3 L4340.03 1891.65 Q4342.36 1891 4344.38 1890.68 Q4346.43 1890.36 4348.23 1890.36 Q4352.89 1890.36 4355.6 1892.48 Q4358.32 1894.59 4358.32 1898.19 Q4358.32 1900.71 4356.88 1902.45 Q4355.44 1904.17 4352.79 1904.84 Z" fill="#ff0000" fill-rule="nonzero" fill-opacity="1" /><path clip-path="url(#clip540)" d="M4366.9 1920.52 L4366.9 1916.79 Q4368.44 1917.52 4370.02 1917.9 Q4371.6 1918.29 4373.12 1918.29 Q4377.17 1918.29 4379.3 1915.57 Q4381.45 1912.84 4381.75 1907.29 Q4380.58 1909.03 4378.77 1909.96 Q4376.97 1910.89 4374.78 1910.89 Q4370.25 1910.89 4367.59 1908.16 Q4364.96 1905.41 4364.96 1900.65 Q4364.96 1895.99 4367.71 1893.17 Q4370.47 1890.36 4375.05 1890.36 Q4380.29 1890.36 4383.05 1894.39 Q4385.82 1898.4 4385.82 1906.05 Q4385.82 1913.2 4382.42 1917.48 Q4379.04 1921.73 4373.3 1921.73 Q4371.76 1921.73 4370.19 1921.43 Q4368.61 1921.12 4366.9 1920.52 M4375.05 1907.69 Q4377.8 1907.69 4379.4 1905.81 Q4381.02 1903.93 4381.02 1900.65 Q4381.02 1897.38 4379.4 1895.5 Q4377.8 1893.6 4375.05 1893.6 Q4372.29 1893.6 4370.67 1895.5 Q4369.07 1897.38 4369.07 1900.65 Q4369.07 1903.93 4370.67 1905.81 Q4372.29 1907.69 4375.05 1907.69 Z" fill="#ff0000" fill-rule="nonzero" fill-opacity="1" /></svg>
